<svg width="25" height="24" viewBox="0 0 25 24" fill="none" xmlns="http://www.w3.org/2000/svg">
<path d="M15 11.4H10C9.59 11.4 9.25 11.06 9.25 10.65C9.25 10.24 9.59 9.90002 10 9.90002H15C15.41 9.90002 15.75 10.24 15.75 10.65C15.75 11.06 15.41 11.4 15 11.4Z" fill="#4D4D4D"/>
<path d="M12.5 13.96C12.09 13.96 11.75 13.62 11.75 13.21V8.21002C11.75 7.80002 12.09 7.46002 12.5 7.46002C12.91 7.46002 13.25 7.80002 13.25 8.21002V13.21C13.25 13.62 12.91 13.96 12.5 13.96Z" fill="#4D4D4D"/>
<path d="M19.5703 22.75C19.0603 22.75 18.5003 22.6 17.9603 22.29L13.0803 19.58C12.7903 19.42 12.2203 19.42 11.9303 19.58L7.05031 22.29C6.06031 22.84 5.05031 22.9 4.28031 22.44C3.51031 21.99 3.07031 21.08 3.07031 19.95V5.86C3.07031 3.32 5.14031 1.25 7.68031 1.25H17.3303C19.8703 1.25 21.9403 3.32 21.9403 5.86V19.95C21.9403 21.08 21.5003 21.99 20.7303 22.44C20.3803 22.65 19.9803 22.75 19.5703 22.75ZM12.5003 17.96C12.9703 17.96 13.4303 18.06 13.8003 18.27L18.6803 20.98C19.1903 21.27 19.6603 21.33 19.9603 21.15C20.2603 20.97 20.4303 20.54 20.4303 19.95V5.86C20.4303 4.15 19.0303 2.75 17.3203 2.75H7.68031C5.97031 2.75 4.57031 4.15 4.57031 5.86V19.95C4.57031 20.54 4.74031 20.98 5.04031 21.15C5.34031 21.32 5.81031 21.27 6.32031 20.98L11.2003 18.27C11.5703 18.06 12.0303 17.96 12.5003 17.96Z" fill="#4D4D4D"/>
</svg>
