<svg width="50" height="50" viewBox="0 0 50 50" fill="none" xmlns="http://www.w3.org/2000/svg">
<path d="M25 50C38.8 50 50 38.8 50 25C50 11.2 38.8 -3.8147e-06 25 -3.8147e-06C11.2 -3.8147e-06 -3.8147e-06 11.2 -3.8147e-06 25C-3.8147e-06 38.8 11.2 50 25 50ZM16.175 24.925C16.55 24.55 17.025 24.375 17.5 24.375C17.975 24.375 18.45 24.55 18.825 24.925L23.125 29.225V16.25C23.125 15.225 23.975 14.375 25 14.375C26.025 14.375 26.875 15.225 26.875 16.25V29.225L31.175 24.925C31.9 24.2 33.1 24.2 33.825 24.925C34.55 25.65 34.55 26.85 33.825 27.575L26.325 35.075C25.6 35.8 24.4 35.8 23.675 35.075L16.175 27.575C15.45 26.85 15.45 25.65 16.175 24.925Z" fill="#EB5757"/>
</svg>
