<svg width="451" height="191" viewBox="0 0 451 191" fill="none" xmlns="http://www.w3.org/2000/svg">
<path d="M0 0L17.1266 12.8925" stroke="#00B0F3" stroke-width="3.5" stroke-linecap="round"/>
<path d="M17.127 0L34.2535 12.8925" stroke="#00B0F3" stroke-width="3.5" stroke-linecap="round"/>
<path d="M51.3805 0L34.2539 12.8925" stroke="#00B0F3" stroke-width="3.5" stroke-linecap="round"/>
<path d="M68.5055 0L51.3789 12.8925" stroke="#00B0F3" stroke-width="3.5" stroke-linecap="round"/>
<path d="M85.6324 0L68.5059 12.8925" stroke="#00B0F3" stroke-width="3.5" stroke-linecap="round"/>
<path d="M85.6328 0L102.759 12.8925" stroke="#00B0F3" stroke-width="3.5" stroke-linecap="round"/>
<path d="M102.76 0L119.886 12.8925" stroke="#00B0F3" stroke-width="3.5" stroke-linecap="round"/>
<path d="M119.887 0L137.013 12.8925" stroke="#00B0F3" stroke-width="3.5" stroke-linecap="round"/>
<path d="M137.012 0L154.138 12.8925" stroke="#00B0F3" stroke-width="3.5" stroke-linecap="round"/>
<path d="M171.265 0L154.139 12.8925" stroke="#00B0F3" stroke-width="3.5" stroke-linecap="round"/>
<path d="M188.392 0L171.266 12.8925" stroke="#00B0F3" stroke-width="3.5" stroke-linecap="round"/>
<path d="M188.393 0L205.519 12.8925" stroke="#00B0F3" stroke-width="3.5" stroke-linecap="round"/>
<path d="M205.52 0L222.646 12.8925" stroke="#00B0F3" stroke-width="3.5" stroke-linecap="round"/>
<path d="M222.646 0L239.773 12.8925" stroke="#00B0F3" stroke-width="3.5" stroke-linecap="round"/>
<path d="M239.771 0L256.898 12.8925" stroke="#00B0F3" stroke-width="3.5" stroke-linecap="round"/>
<path d="M256.898 0L274.025 12.8925" stroke="#00B0F3" stroke-width="3.5" stroke-linecap="round"/>
<path d="M274.025 0L291.152 12.8925" stroke="#00B0F3" stroke-width="3.5" stroke-linecap="round"/>
<path d="M308.279 0L291.152 12.8925" stroke="#00B0F3" stroke-width="3.5" stroke-linecap="round"/>
<path d="M308.279 0L325.406 12.8925" stroke="#00B0F3" stroke-width="3.5" stroke-linecap="round"/>
<path d="M325.404 0L342.531 12.8925" stroke="#00B0F3" stroke-width="3.5" stroke-linecap="round"/>
<path d="M359.658 0L342.531 12.8925" stroke="#00B0F3" stroke-width="3.5" stroke-linecap="round"/>
<path d="M376.785 0L359.658 12.8925" stroke="#00B0F3" stroke-width="3.5" stroke-linecap="round"/>
<path d="M393.912 0L376.785 12.8925" stroke="#00B0F3" stroke-width="3.5" stroke-linecap="round"/>
<path d="M393.912 0L411.039 12.8925" stroke="#00B0F3" stroke-width="3.5" stroke-linecap="round"/>
<path d="M411.037 0L428.164 12.8925" stroke="#00B0F3" stroke-width="3.5" stroke-linecap="round"/>
<path d="M428.164 0L445.291 12.8925" stroke="#00B0F3" stroke-width="3.5" stroke-linecap="round"/>
<path d="M445.291 0L462.418 12.8925" stroke="#00B0F3" stroke-width="3.5" stroke-linecap="round"/>
<path opacity="0.94" d="M17.1266 12.8925L0 25.785" stroke="#00B0F3" stroke-width="3.5" stroke-linecap="round"/>
<path opacity="0.94" d="M34.2535 12.8925L17.127 25.785" stroke="#00B0F3" stroke-width="3.5" stroke-linecap="round"/>
<path opacity="0.94" d="M51.3805 12.8925L34.2539 25.785" stroke="#00B0F3" stroke-width="3.5" stroke-linecap="round"/>
<path opacity="0.94" d="M51.3789 12.8925L68.5055 25.785" stroke="#00B0F3" stroke-width="3.5" stroke-linecap="round"/>
<path opacity="0.94" d="M85.6324 12.8925L68.5059 25.785" stroke="#00B0F3" stroke-width="3.5" stroke-linecap="round"/>
<path opacity="0.94" d="M102.759 12.8925L85.6328 25.785" stroke="#00B0F3" stroke-width="3.5" stroke-linecap="round"/>
<path opacity="0.94" d="M119.886 12.8925L102.76 25.785" stroke="#00B0F3" stroke-width="3.5" stroke-linecap="round"/>
<path opacity="0.94" d="M119.887 12.8925L137.013 25.785" stroke="#00B0F3" stroke-width="3.5" stroke-linecap="round"/>
<path opacity="0.94" d="M137.012 12.8925L154.138 25.785" stroke="#00B0F3" stroke-width="3.5" stroke-linecap="round"/>
<path opacity="0.94" d="M171.265 12.8925L154.139 25.785" stroke="#00B0F3" stroke-width="3.5" stroke-linecap="round"/>
<path opacity="0.94" d="M188.392 12.8925L171.266 25.785" stroke="#00B0F3" stroke-width="3.5" stroke-linecap="round"/>
<path opacity="0.94" d="M188.393 12.8925L205.519 25.785" stroke="#00B0F3" stroke-width="3.5" stroke-linecap="round"/>
<path opacity="0.94" d="M222.646 12.8925L205.52 25.785" stroke="#00B0F3" stroke-width="3.5" stroke-linecap="round"/>
<path opacity="0.94" d="M222.646 12.8925L239.773 25.785" stroke="#00B0F3" stroke-width="3.5" stroke-linecap="round"/>
<path opacity="0.94" d="M239.771 12.8925L256.898 25.785" stroke="#00B0F3" stroke-width="3.5" stroke-linecap="round"/>
<path opacity="0.94" d="M256.898 12.8925L274.025 25.785" stroke="#00B0F3" stroke-width="3.5" stroke-linecap="round"/>
<path opacity="0.94" d="M291.152 12.8925L274.025 25.785" stroke="#00B0F3" stroke-width="3.5" stroke-linecap="round"/>
<path opacity="0.94" d="M291.152 12.8925L308.279 25.785" stroke="#00B0F3" stroke-width="3.5" stroke-linecap="round"/>
<path opacity="0.94" d="M308.279 12.8925L325.406 25.785" stroke="#00B0F3" stroke-width="3.5" stroke-linecap="round"/>
<path opacity="0.94" d="M342.531 12.8925L325.404 25.785" stroke="#00B0F3" stroke-width="3.5" stroke-linecap="round"/>
<path opacity="0.94" d="M342.531 12.8925L359.658 25.785" stroke="#00B0F3" stroke-width="3.5" stroke-linecap="round"/>
<path opacity="0.94" d="M376.785 12.8925L359.658 25.785" stroke="#00B0F3" stroke-width="3.5" stroke-linecap="round"/>
<path opacity="0.94" d="M376.785 12.8925L393.912 25.785" stroke="#00B0F3" stroke-width="3.5" stroke-linecap="round"/>
<path opacity="0.94" d="M393.912 12.8925L411.039 25.785" stroke="#00B0F3" stroke-width="3.5" stroke-linecap="round"/>
<path opacity="0.94" d="M428.164 12.8925L411.037 25.785" stroke="#00B0F3" stroke-width="3.5" stroke-linecap="round"/>
<path opacity="0.94" d="M445.291 12.8925L428.164 25.785" stroke="#00B0F3" stroke-width="3.5" stroke-linecap="round"/>
<path opacity="0.94" d="M462.418 12.8925L445.291 25.785" stroke="#00B0F3" stroke-width="3.5" stroke-linecap="round"/>
<path opacity="0.87" d="M0 25.785L17.1266 38.6775" stroke="#00B0F3" stroke-width="3.5" stroke-linecap="round"/>
<path opacity="0.87" d="M17.127 25.785L34.2535 38.6775" stroke="#00B0F3" stroke-width="3.5" stroke-linecap="round"/>
<path opacity="0.87" d="M51.3805 25.785L34.2539 38.6775" stroke="#00B0F3" stroke-width="3.5" stroke-linecap="round"/>
<path opacity="0.87" d="M68.5055 25.785L51.3789 38.6775" stroke="#00B0F3" stroke-width="3.5" stroke-linecap="round"/>
<path opacity="0.87" d="M85.6324 25.785L68.5059 38.6775" stroke="#00B0F3" stroke-width="3.5" stroke-linecap="round"/>
<path opacity="0.87" d="M85.6328 25.785L102.759 38.6775" stroke="#00B0F3" stroke-width="3.5" stroke-linecap="round"/>
<path opacity="0.87" d="M119.886 25.785L102.76 38.6775" stroke="#00B0F3" stroke-width="3.5" stroke-linecap="round"/>
<path opacity="0.87" d="M119.887 25.785L137.013 38.6775" stroke="#00B0F3" stroke-width="3.5" stroke-linecap="round"/>
<path opacity="0.87" d="M137.012 25.785L154.138 38.6775" stroke="#00B0F3" stroke-width="3.5" stroke-linecap="round"/>
<path opacity="0.87" d="M154.139 25.785L171.265 38.6775" stroke="#00B0F3" stroke-width="3.5" stroke-linecap="round"/>
<path opacity="0.87" d="M171.266 25.785L188.392 38.6775" stroke="#00B0F3" stroke-width="3.5" stroke-linecap="round"/>
<path opacity="0.87" d="M205.519 25.785L188.393 38.6775" stroke="#00B0F3" stroke-width="3.5" stroke-linecap="round"/>
<path opacity="0.87" d="M222.646 25.785L205.52 38.6775" stroke="#00B0F3" stroke-width="3.5" stroke-linecap="round"/>
<path opacity="0.87" d="M222.646 25.785L239.773 38.6775" stroke="#00B0F3" stroke-width="3.5" stroke-linecap="round"/>
<path opacity="0.87" d="M239.771 25.785L256.898 38.6775" stroke="#00B0F3" stroke-width="3.5" stroke-linecap="round"/>
<path opacity="0.87" d="M274.025 25.785L256.898 38.6775" stroke="#00B0F3" stroke-width="3.5" stroke-linecap="round"/>
<path opacity="0.87" d="M291.152 25.785L274.025 38.6775" stroke="#00B0F3" stroke-width="3.5" stroke-linecap="round"/>
<path opacity="0.87" d="M291.152 25.785L308.279 38.6775" stroke="#00B0F3" stroke-width="3.5" stroke-linecap="round"/>
<path opacity="0.87" d="M325.406 25.785L308.279 38.6775" stroke="#00B0F3" stroke-width="3.5" stroke-linecap="round"/>
<path opacity="0.87" d="M342.531 25.785L325.404 38.6775" stroke="#00B0F3" stroke-width="3.5" stroke-linecap="round"/>
<path opacity="0.87" d="M359.658 25.785L342.531 38.6775" stroke="#00B0F3" stroke-width="3.5" stroke-linecap="round"/>
<path opacity="0.87" d="M359.658 25.785L376.785 38.6775" stroke="#00B0F3" stroke-width="3.5" stroke-linecap="round"/>
<path opacity="0.87" d="M393.912 25.785L376.785 38.6775" stroke="#00B0F3" stroke-width="3.5" stroke-linecap="round"/>
<path opacity="0.87" d="M393.912 25.785L411.039 38.6775" stroke="#00B0F3" stroke-width="3.5" stroke-linecap="round"/>
<path opacity="0.87" d="M428.164 25.785L411.037 38.6775" stroke="#00B0F3" stroke-width="3.5" stroke-linecap="round"/>
<path opacity="0.87" d="M445.291 25.785L428.164 38.6775" stroke="#00B0F3" stroke-width="3.5" stroke-linecap="round"/>
<path opacity="0.87" d="M445.291 25.785L462.418 38.6775" stroke="#00B0F3" stroke-width="3.5" stroke-linecap="round"/>
<path opacity="0.81" d="M0 38.6775L17.1266 51.57" stroke="#00B0F3" stroke-width="3.5" stroke-linecap="round"/>
<path opacity="0.81" d="M34.2535 38.6775L17.127 51.57" stroke="#00B0F3" stroke-width="3.5" stroke-linecap="round"/>
<path opacity="0.81" d="M34.2539 38.6775L51.3805 51.57" stroke="#00B0F3" stroke-width="3.5" stroke-linecap="round"/>
<path opacity="0.81" d="M51.3789 38.6775L68.5055 51.57" stroke="#00B0F3" stroke-width="3.5" stroke-linecap="round"/>
<path opacity="0.81" d="M85.6324 38.6775L68.5059 51.57" stroke="#00B0F3" stroke-width="3.5" stroke-linecap="round"/>
<path opacity="0.81" d="M85.6328 38.6775L102.759 51.57" stroke="#00B0F3" stroke-width="3.5" stroke-linecap="round"/>
<path opacity="0.81" d="M119.886 38.6775L102.76 51.57" stroke="#00B0F3" stroke-width="3.5" stroke-linecap="round"/>
<path opacity="0.81" d="M137.013 38.6775L119.887 51.57" stroke="#00B0F3" stroke-width="3.5" stroke-linecap="round"/>
<path opacity="0.81" d="M154.138 38.6775L137.012 51.57" stroke="#00B0F3" stroke-width="3.5" stroke-linecap="round"/>
<path opacity="0.81" d="M154.139 38.6775L171.265 51.57" stroke="#00B0F3" stroke-width="3.5" stroke-linecap="round"/>
<path opacity="0.81" d="M188.392 38.6775L171.266 51.57" stroke="#00B0F3" stroke-width="3.5" stroke-linecap="round"/>
<path opacity="0.81" d="M188.393 38.6775L205.519 51.57" stroke="#00B0F3" stroke-width="3.5" stroke-linecap="round"/>
<path opacity="0.81" d="M205.52 38.6775L222.646 51.57" stroke="#00B0F3" stroke-width="3.5" stroke-linecap="round"/>
<path opacity="0.81" d="M222.646 38.6775L239.773 51.57" stroke="#00B0F3" stroke-width="3.5" stroke-linecap="round"/>
<path opacity="0.81" d="M239.771 38.6775L256.898 51.57" stroke="#00B0F3" stroke-width="3.5" stroke-linecap="round"/>
<path opacity="0.81" d="M274.025 38.6775L256.898 51.57" stroke="#00B0F3" stroke-width="3.5" stroke-linecap="round"/>
<path opacity="0.81" d="M291.152 38.6775L274.025 51.57" stroke="#00B0F3" stroke-width="3.5" stroke-linecap="round"/>
<path opacity="0.81" d="M308.279 38.6775L291.152 51.57" stroke="#00B0F3" stroke-width="3.5" stroke-linecap="round"/>
<path opacity="0.81" d="M325.406 38.6775L308.279 51.57" stroke="#00B0F3" stroke-width="3.5" stroke-linecap="round"/>
<path opacity="0.81" d="M342.531 38.6775L325.404 51.57" stroke="#00B0F3" stroke-width="3.5" stroke-linecap="round"/>
<path opacity="0.81" d="M342.531 38.6775L359.658 51.57" stroke="#00B0F3" stroke-width="3.5" stroke-linecap="round"/>
<path opacity="0.81" d="M376.785 38.6775L359.658 51.57" stroke="#00B0F3" stroke-width="3.5" stroke-linecap="round"/>
<path opacity="0.81" d="M393.912 38.6775L376.785 51.57" stroke="#00B0F3" stroke-width="3.5" stroke-linecap="round"/>
<path opacity="0.81" d="M411.039 38.6775L393.912 51.57" stroke="#00B0F3" stroke-width="3.5" stroke-linecap="round"/>
<path opacity="0.81" d="M428.164 38.6775L411.037 51.57" stroke="#00B0F3" stroke-width="3.5" stroke-linecap="round"/>
<path opacity="0.81" d="M428.164 38.6775L445.291 51.57" stroke="#00B0F3" stroke-width="3.5" stroke-linecap="round"/>
<path opacity="0.81" d="M445.291 38.6775L462.418 51.57" stroke="#00B0F3" stroke-width="3.5" stroke-linecap="round"/>
<path opacity="0.74" d="M0 51.5699L17.1266 64.4624" stroke="#00B0F3" stroke-width="3.5" stroke-linecap="round"/>
<path opacity="0.74" d="M17.127 51.5699L34.2535 64.4624" stroke="#00B0F3" stroke-width="3.5" stroke-linecap="round"/>
<path opacity="0.74" d="M34.2539 51.5699L51.3805 64.4624" stroke="#00B0F3" stroke-width="3.5" stroke-linecap="round"/>
<path opacity="0.74" d="M68.5055 51.5699L51.3789 64.4624" stroke="#00B0F3" stroke-width="3.5" stroke-linecap="round"/>
<path opacity="0.74" d="M85.6324 51.5699L68.5059 64.4624" stroke="#00B0F3" stroke-width="3.5" stroke-linecap="round"/>
<path opacity="0.74" d="M85.6328 51.5699L102.759 64.4624" stroke="#00B0F3" stroke-width="3.5" stroke-linecap="round"/>
<path opacity="0.74" d="M119.886 51.5699L102.76 64.4624" stroke="#00B0F3" stroke-width="3.5" stroke-linecap="round"/>
<path opacity="0.74" d="M137.013 51.5699L119.887 64.4624" stroke="#00B0F3" stroke-width="3.5" stroke-linecap="round"/>
<path opacity="0.74" d="M137.012 51.5699L154.138 64.4624" stroke="#00B0F3" stroke-width="3.5" stroke-linecap="round"/>
<path opacity="0.74" d="M154.139 51.5699L171.265 64.4624" stroke="#00B0F3" stroke-width="3.5" stroke-linecap="round"/>
<path opacity="0.74" d="M171.266 51.5699L188.392 64.4624" stroke="#00B0F3" stroke-width="3.5" stroke-linecap="round"/>
<path opacity="0.74" d="M205.519 51.5699L188.393 64.4624" stroke="#00B0F3" stroke-width="3.5" stroke-linecap="round"/>
<path opacity="0.74" d="M222.646 51.5699L205.52 64.4624" stroke="#00B0F3" stroke-width="3.5" stroke-linecap="round"/>
<path opacity="0.74" d="M239.773 51.5699L222.646 64.4624" stroke="#00B0F3" stroke-width="3.5" stroke-linecap="round"/>
<path opacity="0.74" d="M256.898 51.5699L239.771 64.4624" stroke="#00B0F3" stroke-width="3.5" stroke-linecap="round"/>
<path opacity="0.74" d="M274.025 51.5699L256.898 64.4624" stroke="#00B0F3" stroke-width="3.5" stroke-linecap="round"/>
<path opacity="0.74" d="M274.025 51.5699L291.152 64.4624" stroke="#00B0F3" stroke-width="3.5" stroke-linecap="round"/>
<path opacity="0.74" d="M291.152 51.5699L308.279 64.4624" stroke="#00B0F3" stroke-width="3.5" stroke-linecap="round"/>
<path opacity="0.74" d="M325.406 51.5699L308.279 64.4624" stroke="#00B0F3" stroke-width="3.5" stroke-linecap="round"/>
<path opacity="0.74" d="M342.531 51.5699L325.404 64.4624" stroke="#00B0F3" stroke-width="3.5" stroke-linecap="round"/>
<path opacity="0.74" d="M342.531 51.5699L359.658 64.4624" stroke="#00B0F3" stroke-width="3.5" stroke-linecap="round"/>
<path opacity="0.74" d="M359.658 51.5699L376.785 64.4624" stroke="#00B0F3" stroke-width="3.5" stroke-linecap="round"/>
<path opacity="0.74" d="M376.785 51.5699L393.912 64.4624" stroke="#00B0F3" stroke-width="3.5" stroke-linecap="round"/>
<path opacity="0.74" d="M411.039 51.5699L393.912 64.4624" stroke="#00B0F3" stroke-width="3.5" stroke-linecap="round"/>
<path opacity="0.74" d="M411.037 51.5699L428.164 64.4624" stroke="#00B0F3" stroke-width="3.5" stroke-linecap="round"/>
<path opacity="0.74" d="M428.164 51.5699L445.291 64.4624" stroke="#00B0F3" stroke-width="3.5" stroke-linecap="round"/>
<path opacity="0.74" d="M445.291 51.5699L462.418 64.4624" stroke="#00B0F3" stroke-width="3.5" stroke-linecap="round"/>
<path opacity="0.68" d="M0 64.4625L17.1266 77.355" stroke="#00B0F3" stroke-width="3.5" stroke-linecap="round"/>
<path opacity="0.68" d="M34.2535 64.4625L17.127 77.355" stroke="#00B0F3" stroke-width="3.5" stroke-linecap="round"/>
<path opacity="0.68" d="M34.2539 64.4625L51.3805 77.355" stroke="#00B0F3" stroke-width="3.5" stroke-linecap="round"/>
<path opacity="0.68" d="M68.5055 64.4625L51.3789 77.355" stroke="#00B0F3" stroke-width="3.5" stroke-linecap="round"/>
<path opacity="0.68" d="M85.6324 64.4625L68.5059 77.355" stroke="#00B0F3" stroke-width="3.5" stroke-linecap="round"/>
<path opacity="0.68" d="M102.759 64.4625L85.6328 77.355" stroke="#00B0F3" stroke-width="3.5" stroke-linecap="round"/>
<path opacity="0.68" d="M102.76 64.4625L119.886 77.355" stroke="#00B0F3" stroke-width="3.5" stroke-linecap="round"/>
<path opacity="0.68" d="M137.013 64.4625L119.887 77.355" stroke="#00B0F3" stroke-width="3.5" stroke-linecap="round"/>
<path opacity="0.68" d="M154.138 64.4625L137.012 77.355" stroke="#00B0F3" stroke-width="3.5" stroke-linecap="round"/>
<path opacity="0.68" d="M154.139 64.4625L171.265 77.355" stroke="#00B0F3" stroke-width="3.5" stroke-linecap="round"/>
<path opacity="0.68" d="M171.266 64.4625L188.392 77.355" stroke="#00B0F3" stroke-width="3.5" stroke-linecap="round"/>
<path opacity="0.68" d="M188.393 64.4625L205.519 77.355" stroke="#00B0F3" stroke-width="3.5" stroke-linecap="round"/>
<path opacity="0.68" d="M205.52 64.4625L222.646 77.355" stroke="#00B0F3" stroke-width="3.5" stroke-linecap="round"/>
<path opacity="0.68" d="M222.646 64.4625L239.773 77.355" stroke="#00B0F3" stroke-width="3.5" stroke-linecap="round"/>
<path opacity="0.68" d="M256.898 64.4625L239.771 77.355" stroke="#00B0F3" stroke-width="3.5" stroke-linecap="round"/>
<path opacity="0.68" d="M274.025 64.4625L256.898 77.355" stroke="#00B0F3" stroke-width="3.5" stroke-linecap="round"/>
<path opacity="0.68" d="M274.025 64.4625L291.152 77.355" stroke="#00B0F3" stroke-width="3.5" stroke-linecap="round"/>
<path opacity="0.68" d="M291.152 64.4625L308.279 77.355" stroke="#00B0F3" stroke-width="3.5" stroke-linecap="round"/>
<path opacity="0.68" d="M325.406 64.4625L308.279 77.355" stroke="#00B0F3" stroke-width="3.5" stroke-linecap="round"/>
<path opacity="0.68" d="M342.531 64.4625L325.404 77.355" stroke="#00B0F3" stroke-width="3.5" stroke-linecap="round"/>
<path opacity="0.68" d="M359.658 64.4625L342.531 77.355" stroke="#00B0F3" stroke-width="3.5" stroke-linecap="round"/>
<path opacity="0.68" d="M359.658 64.4625L376.785 77.355" stroke="#00B0F3" stroke-width="3.5" stroke-linecap="round"/>
<path opacity="0.68" d="M393.912 64.4625L376.785 77.355" stroke="#00B0F3" stroke-width="3.5" stroke-linecap="round"/>
<path opacity="0.68" d="M393.912 64.4625L411.039 77.355" stroke="#00B0F3" stroke-width="3.5" stroke-linecap="round"/>
<path opacity="0.68" d="M411.037 64.4625L428.164 77.355" stroke="#00B0F3" stroke-width="3.5" stroke-linecap="round"/>
<path opacity="0.68" d="M428.164 64.4625L445.291 77.355" stroke="#00B0F3" stroke-width="3.5" stroke-linecap="round"/>
<path opacity="0.68" d="M445.291 64.4625L462.418 77.355" stroke="#00B0F3" stroke-width="3.5" stroke-linecap="round"/>
<path opacity="0.62" d="M17.1266 77.355L0 90.2475" stroke="#00B0F3" stroke-width="3.5" stroke-linecap="round"/>
<path opacity="0.62" d="M17.127 77.355L34.2535 90.2475" stroke="#00B0F3" stroke-width="3.5" stroke-linecap="round"/>
<path opacity="0.62" d="M51.3805 77.355L34.2539 90.2475" stroke="#00B0F3" stroke-width="3.5" stroke-linecap="round"/>
<path opacity="0.62" d="M51.3789 77.355L68.5055 90.2475" stroke="#00B0F3" stroke-width="3.5" stroke-linecap="round"/>
<path opacity="0.62" d="M68.5059 77.355L85.6324 90.2475" stroke="#00B0F3" stroke-width="3.5" stroke-linecap="round"/>
<path opacity="0.62" d="M85.6328 77.355L102.759 90.2475" stroke="#00B0F3" stroke-width="3.5" stroke-linecap="round"/>
<path opacity="0.62" d="M119.886 77.355L102.76 90.2475" stroke="#00B0F3" stroke-width="3.5" stroke-linecap="round"/>
<path opacity="0.62" d="M137.013 77.355L119.887 90.2475" stroke="#00B0F3" stroke-width="3.5" stroke-linecap="round"/>
<path opacity="0.62" d="M137.012 77.355L154.138 90.2475" stroke="#00B0F3" stroke-width="3.5" stroke-linecap="round"/>
<path opacity="0.62" d="M171.265 77.355L154.139 90.2475" stroke="#00B0F3" stroke-width="3.5" stroke-linecap="round"/>
<path opacity="0.62" d="M188.392 77.355L171.266 90.2475" stroke="#00B0F3" stroke-width="3.5" stroke-linecap="round"/>
<path opacity="0.62" d="M205.519 77.355L188.393 90.2475" stroke="#00B0F3" stroke-width="3.5" stroke-linecap="round"/>
<path opacity="0.62" d="M222.646 77.355L205.52 90.2475" stroke="#00B0F3" stroke-width="3.5" stroke-linecap="round"/>
<path opacity="0.62" d="M239.773 77.355L222.646 90.2475" stroke="#00B0F3" stroke-width="3.5" stroke-linecap="round"/>
<path opacity="0.62" d="M239.771 77.355L256.898 90.2475" stroke="#00B0F3" stroke-width="3.5" stroke-linecap="round"/>
<path opacity="0.62" d="M256.898 77.355L274.025 90.2475" stroke="#00B0F3" stroke-width="3.5" stroke-linecap="round"/>
<path opacity="0.62" d="M291.152 77.355L274.025 90.2475" stroke="#00B0F3" stroke-width="3.5" stroke-linecap="round"/>
<path opacity="0.62" d="M291.152 77.355L308.279 90.2475" stroke="#00B0F3" stroke-width="3.5" stroke-linecap="round"/>
<path opacity="0.62" d="M325.406 77.355L308.279 90.2475" stroke="#00B0F3" stroke-width="3.5" stroke-linecap="round"/>
<path opacity="0.62" d="M325.404 77.355L342.531 90.2475" stroke="#00B0F3" stroke-width="3.5" stroke-linecap="round"/>
<path opacity="0.62" d="M359.658 77.355L342.531 90.2475" stroke="#00B0F3" stroke-width="3.5" stroke-linecap="round"/>
<path opacity="0.62" d="M376.785 77.355L359.658 90.2475" stroke="#00B0F3" stroke-width="3.5" stroke-linecap="round"/>
<path opacity="0.62" d="M393.912 77.355L376.785 90.2475" stroke="#00B0F3" stroke-width="3.5" stroke-linecap="round"/>
<path opacity="0.62" d="M393.912 77.355L411.039 90.2475" stroke="#00B0F3" stroke-width="3.5" stroke-linecap="round"/>
<path opacity="0.62" d="M411.037 77.355L428.164 90.2475" stroke="#00B0F3" stroke-width="3.5" stroke-linecap="round"/>
<path opacity="0.62" d="M428.164 77.355L445.291 90.2475" stroke="#00B0F3" stroke-width="3.5" stroke-linecap="round"/>
<path opacity="0.62" d="M445.291 77.355L462.418 90.2475" stroke="#00B0F3" stroke-width="3.5" stroke-linecap="round"/>
<path opacity="0.55" d="M0 90.2476L17.1266 103.14" stroke="#00B0F3" stroke-width="3.5" stroke-linecap="round"/>
<path opacity="0.55" d="M34.2535 90.2476L17.127 103.14" stroke="#00B0F3" stroke-width="3.5" stroke-linecap="round"/>
<path opacity="0.55" d="M34.2539 90.2476L51.3805 103.14" stroke="#00B0F3" stroke-width="3.5" stroke-linecap="round"/>
<path opacity="0.55" d="M68.5055 90.2476L51.3789 103.14" stroke="#00B0F3" stroke-width="3.5" stroke-linecap="round"/>
<path opacity="0.55" d="M85.6324 90.2476L68.5059 103.14" stroke="#00B0F3" stroke-width="3.5" stroke-linecap="round"/>
<path opacity="0.55" d="M102.759 90.2476L85.6328 103.14" stroke="#00B0F3" stroke-width="3.5" stroke-linecap="round"/>
<path opacity="0.55" d="M102.76 90.2476L119.886 103.14" stroke="#00B0F3" stroke-width="3.5" stroke-linecap="round"/>
<path opacity="0.55" d="M119.887 90.2476L137.013 103.14" stroke="#00B0F3" stroke-width="3.5" stroke-linecap="round"/>
<path opacity="0.55" d="M154.138 90.2476L137.012 103.14" stroke="#00B0F3" stroke-width="3.5" stroke-linecap="round"/>
<path opacity="0.55" d="M171.265 90.2476L154.139 103.14" stroke="#00B0F3" stroke-width="3.5" stroke-linecap="round"/>
<path opacity="0.55" d="M188.392 90.2476L171.266 103.14" stroke="#00B0F3" stroke-width="3.5" stroke-linecap="round"/>
<path opacity="0.55" d="M205.519 90.2476L188.393 103.14" stroke="#00B0F3" stroke-width="3.5" stroke-linecap="round"/>
<path opacity="0.55" d="M222.646 90.2476L205.52 103.14" stroke="#00B0F3" stroke-width="3.5" stroke-linecap="round"/>
<path opacity="0.55" d="M239.773 90.2476L222.646 103.14" stroke="#00B0F3" stroke-width="3.5" stroke-linecap="round"/>
<path opacity="0.55" d="M256.898 90.2476L239.771 103.14" stroke="#00B0F3" stroke-width="3.5" stroke-linecap="round"/>
<path opacity="0.55" d="M274.025 90.2476L256.898 103.14" stroke="#00B0F3" stroke-width="3.5" stroke-linecap="round"/>
<path opacity="0.55" d="M291.152 90.2476L274.025 103.14" stroke="#00B0F3" stroke-width="3.5" stroke-linecap="round"/>
<path opacity="0.55" d="M291.152 90.2476L308.279 103.14" stroke="#00B0F3" stroke-width="3.5" stroke-linecap="round"/>
<path opacity="0.55" d="M308.279 90.2476L325.406 103.14" stroke="#00B0F3" stroke-width="3.5" stroke-linecap="round"/>
<path opacity="0.55" d="M342.531 90.2476L325.404 103.14" stroke="#00B0F3" stroke-width="3.5" stroke-linecap="round"/>
<path opacity="0.55" d="M359.658 90.2476L342.531 103.14" stroke="#00B0F3" stroke-width="3.5" stroke-linecap="round"/>
<path opacity="0.55" d="M376.785 90.2476L359.658 103.14" stroke="#00B0F3" stroke-width="3.5" stroke-linecap="round"/>
<path opacity="0.55" d="M393.912 90.2476L376.785 103.14" stroke="#00B0F3" stroke-width="3.5" stroke-linecap="round"/>
<path opacity="0.55" d="M411.039 90.2476L393.912 103.14" stroke="#00B0F3" stroke-width="3.5" stroke-linecap="round"/>
<path opacity="0.55" d="M411.037 90.2476L428.164 103.14" stroke="#00B0F3" stroke-width="3.5" stroke-linecap="round"/>
<path opacity="0.55" d="M428.164 90.2476L445.291 103.14" stroke="#00B0F3" stroke-width="3.5" stroke-linecap="round"/>
<path opacity="0.55" d="M462.418 90.2476L445.291 103.14" stroke="#00B0F3" stroke-width="3.5" stroke-linecap="round"/>
<path opacity="0.49" d="M17.1266 103.14L0 116.033" stroke="#00B0F3" stroke-width="3.5" stroke-linecap="round"/>
<path opacity="0.49" d="M17.127 103.14L34.2535 116.033" stroke="#00B0F3" stroke-width="3.5" stroke-linecap="round"/>
<path opacity="0.49" d="M51.3805 103.14L34.2539 116.033" stroke="#00B0F3" stroke-width="3.5" stroke-linecap="round"/>
<path opacity="0.49" d="M51.3789 103.14L68.5055 116.033" stroke="#00B0F3" stroke-width="3.5" stroke-linecap="round"/>
<path opacity="0.49" d="M85.6324 103.14L68.5059 116.033" stroke="#00B0F3" stroke-width="3.5" stroke-linecap="round"/>
<path opacity="0.49" d="M85.6328 103.14L102.759 116.033" stroke="#00B0F3" stroke-width="3.5" stroke-linecap="round"/>
<path opacity="0.49" d="M119.886 103.14L102.76 116.033" stroke="#00B0F3" stroke-width="3.5" stroke-linecap="round"/>
<path opacity="0.49" d="M119.887 103.14L137.013 116.033" stroke="#00B0F3" stroke-width="3.5" stroke-linecap="round"/>
<path opacity="0.49" d="M154.138 103.14L137.012 116.033" stroke="#00B0F3" stroke-width="3.5" stroke-linecap="round"/>
<path opacity="0.49" d="M171.265 103.14L154.139 116.033" stroke="#00B0F3" stroke-width="3.5" stroke-linecap="round"/>
<path opacity="0.49" d="M188.392 103.14L171.266 116.033" stroke="#00B0F3" stroke-width="3.5" stroke-linecap="round"/>
<path opacity="0.49" d="M205.519 103.14L188.393 116.033" stroke="#00B0F3" stroke-width="3.5" stroke-linecap="round"/>
<path opacity="0.49" d="M205.52 103.14L222.646 116.033" stroke="#00B0F3" stroke-width="3.5" stroke-linecap="round"/>
<path opacity="0.49" d="M222.646 103.14L239.773 116.033" stroke="#00B0F3" stroke-width="3.5" stroke-linecap="round"/>
<path opacity="0.49" d="M239.771 103.14L256.898 116.033" stroke="#00B0F3" stroke-width="3.5" stroke-linecap="round"/>
<path opacity="0.49" d="M274.025 103.14L256.898 116.033" stroke="#00B0F3" stroke-width="3.5" stroke-linecap="round"/>
<path opacity="0.49" d="M274.025 103.14L291.152 116.033" stroke="#00B0F3" stroke-width="3.5" stroke-linecap="round"/>
<path opacity="0.49" d="M308.279 103.14L291.152 116.033" stroke="#00B0F3" stroke-width="3.5" stroke-linecap="round"/>
<path opacity="0.49" d="M308.279 103.14L325.406 116.033" stroke="#00B0F3" stroke-width="3.5" stroke-linecap="round"/>
<path opacity="0.49" d="M325.404 103.14L342.531 116.033" stroke="#00B0F3" stroke-width="3.5" stroke-linecap="round"/>
<path opacity="0.49" d="M342.531 103.14L359.658 116.033" stroke="#00B0F3" stroke-width="3.5" stroke-linecap="round"/>
<path opacity="0.49" d="M376.785 103.14L359.658 116.033" stroke="#00B0F3" stroke-width="3.5" stroke-linecap="round"/>
<path opacity="0.49" d="M376.785 103.14L393.912 116.033" stroke="#00B0F3" stroke-width="3.5" stroke-linecap="round"/>
<path opacity="0.49" d="M393.912 103.14L411.039 116.033" stroke="#00B0F3" stroke-width="3.5" stroke-linecap="round"/>
<path opacity="0.49" d="M428.164 103.14L411.037 116.033" stroke="#00B0F3" stroke-width="3.5" stroke-linecap="round"/>
<path opacity="0.49" d="M445.291 103.14L428.164 116.033" stroke="#00B0F3" stroke-width="3.5" stroke-linecap="round"/>
<path opacity="0.49" d="M445.291 103.14L462.418 116.033" stroke="#00B0F3" stroke-width="3.5" stroke-linecap="round"/>
<path opacity="0.42" d="M0 116.032L17.1266 128.925" stroke="#00B0F3" stroke-width="3.5" stroke-linecap="round"/>
<path opacity="0.42" d="M17.127 116.032L34.2535 128.925" stroke="#00B0F3" stroke-width="3.5" stroke-linecap="round"/>
<path opacity="0.42" d="M51.3805 116.032L34.2539 128.925" stroke="#00B0F3" stroke-width="3.5" stroke-linecap="round"/>
<path opacity="0.42" d="M68.5055 116.032L51.3789 128.925" stroke="#00B0F3" stroke-width="3.5" stroke-linecap="round"/>
<path opacity="0.42" d="M68.5059 116.032L85.6324 128.925" stroke="#00B0F3" stroke-width="3.5" stroke-linecap="round"/>
<path opacity="0.42" d="M85.6328 116.032L102.759 128.925" stroke="#00B0F3" stroke-width="3.5" stroke-linecap="round"/>
<path opacity="0.42" d="M119.886 116.032L102.76 128.925" stroke="#00B0F3" stroke-width="3.5" stroke-linecap="round"/>
<path opacity="0.42" d="M137.013 116.032L119.887 128.925" stroke="#00B0F3" stroke-width="3.5" stroke-linecap="round"/>
<path opacity="0.42" d="M154.138 116.032L137.012 128.925" stroke="#00B0F3" stroke-width="3.5" stroke-linecap="round"/>
<path opacity="0.42" d="M171.265 116.032L154.139 128.925" stroke="#00B0F3" stroke-width="3.5" stroke-linecap="round"/>
<path opacity="0.42" d="M188.392 116.032L171.266 128.925" stroke="#00B0F3" stroke-width="3.5" stroke-linecap="round"/>
<path opacity="0.42" d="M205.519 116.032L188.393 128.925" stroke="#00B0F3" stroke-width="3.5" stroke-linecap="round"/>
<path opacity="0.42" d="M205.52 116.032L222.646 128.925" stroke="#00B0F3" stroke-width="3.5" stroke-linecap="round"/>
<path opacity="0.42" d="M222.646 116.032L239.773 128.925" stroke="#00B0F3" stroke-width="3.5" stroke-linecap="round"/>
<path opacity="0.42" d="M256.898 116.032L239.771 128.925" stroke="#00B0F3" stroke-width="3.5" stroke-linecap="round"/>
<path opacity="0.42" d="M274.025 116.032L256.898 128.925" stroke="#00B0F3" stroke-width="3.5" stroke-linecap="round"/>
<path opacity="0.42" d="M274.025 116.032L291.152 128.925" stroke="#00B0F3" stroke-width="3.5" stroke-linecap="round"/>
<path opacity="0.42" d="M308.279 116.032L291.152 128.925" stroke="#00B0F3" stroke-width="3.5" stroke-linecap="round"/>
<path opacity="0.42" d="M308.279 116.032L325.406 128.925" stroke="#00B0F3" stroke-width="3.5" stroke-linecap="round"/>
<path opacity="0.42" d="M342.531 116.032L325.404 128.925" stroke="#00B0F3" stroke-width="3.5" stroke-linecap="round"/>
<path opacity="0.42" d="M359.658 116.032L342.531 128.925" stroke="#00B0F3" stroke-width="3.5" stroke-linecap="round"/>
<path opacity="0.42" d="M359.658 116.032L376.785 128.925" stroke="#00B0F3" stroke-width="3.5" stroke-linecap="round"/>
<path opacity="0.42" d="M393.912 116.032L376.785 128.925" stroke="#00B0F3" stroke-width="3.5" stroke-linecap="round"/>
<path opacity="0.42" d="M393.912 116.032L411.039 128.925" stroke="#00B0F3" stroke-width="3.5" stroke-linecap="round"/>
<path opacity="0.42" d="M411.037 116.032L428.164 128.925" stroke="#00B0F3" stroke-width="3.5" stroke-linecap="round"/>
<path opacity="0.42" d="M445.291 116.032L428.164 128.925" stroke="#00B0F3" stroke-width="3.5" stroke-linecap="round"/>
<path opacity="0.42" d="M445.291 116.032L462.418 128.925" stroke="#00B0F3" stroke-width="3.5" stroke-linecap="round"/>
<path opacity="0.36" d="M0 128.925L17.1266 141.818" stroke="#00B0F3" stroke-width="3.5" stroke-linecap="round"/>
<path opacity="0.36" d="M17.127 128.925L34.2535 141.818" stroke="#00B0F3" stroke-width="3.5" stroke-linecap="round"/>
<path opacity="0.36" d="M51.3805 128.925L34.2539 141.818" stroke="#00B0F3" stroke-width="3.5" stroke-linecap="round"/>
<path opacity="0.36" d="M68.5055 128.925L51.3789 141.818" stroke="#00B0F3" stroke-width="3.5" stroke-linecap="round"/>
<path opacity="0.36" d="M68.5059 128.925L85.6324 141.818" stroke="#00B0F3" stroke-width="3.5" stroke-linecap="round"/>
<path opacity="0.36" d="M102.759 128.925L85.6328 141.818" stroke="#00B0F3" stroke-width="3.5" stroke-linecap="round"/>
<path opacity="0.36" d="M119.886 128.925L102.76 141.818" stroke="#00B0F3" stroke-width="3.5" stroke-linecap="round"/>
<path opacity="0.36" d="M137.013 128.925L119.887 141.818" stroke="#00B0F3" stroke-width="3.5" stroke-linecap="round"/>
<path opacity="0.36" d="M137.012 128.925L154.138 141.818" stroke="#00B0F3" stroke-width="3.5" stroke-linecap="round"/>
<path opacity="0.36" d="M154.139 128.925L171.265 141.818" stroke="#00B0F3" stroke-width="3.5" stroke-linecap="round"/>
<path opacity="0.36" d="M171.266 128.925L188.392 141.818" stroke="#00B0F3" stroke-width="3.5" stroke-linecap="round"/>
<path opacity="0.36" d="M205.519 128.925L188.393 141.818" stroke="#00B0F3" stroke-width="3.5" stroke-linecap="round"/>
<path opacity="0.36" d="M205.52 128.925L222.646 141.818" stroke="#00B0F3" stroke-width="3.5" stroke-linecap="round"/>
<path opacity="0.36" d="M239.773 128.925L222.646 141.818" stroke="#00B0F3" stroke-width="3.5" stroke-linecap="round"/>
<path opacity="0.36" d="M239.771 128.925L256.898 141.818" stroke="#00B0F3" stroke-width="3.5" stroke-linecap="round"/>
<path opacity="0.36" d="M256.898 128.925L274.025 141.818" stroke="#00B0F3" stroke-width="3.5" stroke-linecap="round"/>
<path opacity="0.36" d="M291.152 128.925L274.025 141.818" stroke="#00B0F3" stroke-width="3.5" stroke-linecap="round"/>
<path opacity="0.36" d="M291.152 128.925L308.279 141.818" stroke="#00B0F3" stroke-width="3.5" stroke-linecap="round"/>
<path opacity="0.36" d="M308.279 128.925L325.406 141.818" stroke="#00B0F3" stroke-width="3.5" stroke-linecap="round"/>
<path opacity="0.36" d="M325.404 128.925L342.531 141.818" stroke="#00B0F3" stroke-width="3.5" stroke-linecap="round"/>
<path opacity="0.36" d="M359.658 128.925L342.531 141.818" stroke="#00B0F3" stroke-width="3.5" stroke-linecap="round"/>
<path opacity="0.36" d="M376.785 128.925L359.658 141.818" stroke="#00B0F3" stroke-width="3.5" stroke-linecap="round"/>
<path opacity="0.36" d="M376.785 128.925L393.912 141.818" stroke="#00B0F3" stroke-width="3.5" stroke-linecap="round"/>
<path opacity="0.36" d="M393.912 128.925L411.039 141.818" stroke="#00B0F3" stroke-width="3.5" stroke-linecap="round"/>
<path opacity="0.36" d="M428.164 128.925L411.037 141.818" stroke="#00B0F3" stroke-width="3.5" stroke-linecap="round"/>
<path opacity="0.36" d="M445.291 128.925L428.164 141.818" stroke="#00B0F3" stroke-width="3.5" stroke-linecap="round"/>
<path opacity="0.36" d="M445.291 128.925L462.418 141.818" stroke="#00B0F3" stroke-width="3.5" stroke-linecap="round"/>
<path opacity="0.29" d="M0 141.818L17.1266 154.71" stroke="#00B0F3" stroke-width="3.5" stroke-linecap="round"/>
<path opacity="0.29" d="M17.127 141.818L34.2535 154.71" stroke="#00B0F3" stroke-width="3.5" stroke-linecap="round"/>
<path opacity="0.29" d="M51.3805 141.818L34.2539 154.71" stroke="#00B0F3" stroke-width="3.5" stroke-linecap="round"/>
<path opacity="0.29" d="M51.3789 141.818L68.5055 154.71" stroke="#00B0F3" stroke-width="3.5" stroke-linecap="round"/>
<path opacity="0.29" d="M68.5059 141.818L85.6324 154.71" stroke="#00B0F3" stroke-width="3.5" stroke-linecap="round"/>
<path opacity="0.29" d="M102.759 141.818L85.6328 154.71" stroke="#00B0F3" stroke-width="3.5" stroke-linecap="round"/>
<path opacity="0.29" d="M119.886 141.818L102.76 154.71" stroke="#00B0F3" stroke-width="3.5" stroke-linecap="round"/>
<path opacity="0.29" d="M137.013 141.818L119.887 154.71" stroke="#00B0F3" stroke-width="3.5" stroke-linecap="round"/>
<path opacity="0.29" d="M137.012 141.818L154.138 154.71" stroke="#00B0F3" stroke-width="3.5" stroke-linecap="round"/>
<path opacity="0.29" d="M171.265 141.818L154.139 154.71" stroke="#00B0F3" stroke-width="3.5" stroke-linecap="round"/>
<path opacity="0.29" d="M188.392 141.818L171.266 154.71" stroke="#00B0F3" stroke-width="3.5" stroke-linecap="round"/>
<path opacity="0.29" d="M188.393 141.818L205.519 154.71" stroke="#00B0F3" stroke-width="3.5" stroke-linecap="round"/>
<path opacity="0.29" d="M205.52 141.818L222.646 154.71" stroke="#00B0F3" stroke-width="3.5" stroke-linecap="round"/>
<path opacity="0.29" d="M239.773 141.818L222.646 154.71" stroke="#00B0F3" stroke-width="3.5" stroke-linecap="round"/>
<path opacity="0.29" d="M256.898 141.818L239.771 154.71" stroke="#00B0F3" stroke-width="3.5" stroke-linecap="round"/>
<path opacity="0.29" d="M256.898 141.818L274.025 154.71" stroke="#00B0F3" stroke-width="3.5" stroke-linecap="round"/>
<path opacity="0.29" d="M274.025 141.818L291.152 154.71" stroke="#00B0F3" stroke-width="3.5" stroke-linecap="round"/>
<path opacity="0.29" d="M291.152 141.818L308.279 154.71" stroke="#00B0F3" stroke-width="3.5" stroke-linecap="round"/>
<path opacity="0.29" d="M325.406 141.818L308.279 154.71" stroke="#00B0F3" stroke-width="3.5" stroke-linecap="round"/>
<path opacity="0.29" d="M325.404 141.818L342.531 154.71" stroke="#00B0F3" stroke-width="3.5" stroke-linecap="round"/>
<path opacity="0.29" d="M359.658 141.818L342.531 154.71" stroke="#00B0F3" stroke-width="3.5" stroke-linecap="round"/>
<path opacity="0.29" d="M376.785 141.818L359.658 154.71" stroke="#00B0F3" stroke-width="3.5" stroke-linecap="round"/>
<path opacity="0.29" d="M393.912 141.818L376.785 154.71" stroke="#00B0F3" stroke-width="3.5" stroke-linecap="round"/>
<path opacity="0.29" d="M393.912 141.818L411.039 154.71" stroke="#00B0F3" stroke-width="3.5" stroke-linecap="round"/>
<path opacity="0.29" d="M428.164 141.818L411.037 154.71" stroke="#00B0F3" stroke-width="3.5" stroke-linecap="round"/>
<path opacity="0.29" d="M445.291 141.818L428.164 154.71" stroke="#00B0F3" stroke-width="3.5" stroke-linecap="round"/>
<path opacity="0.29" d="M462.418 141.818L445.291 154.71" stroke="#00B0F3" stroke-width="3.5" stroke-linecap="round"/>
<path opacity="0.23" d="M0 154.71L17.1266 167.602" stroke="#00B0F3" stroke-width="3.5" stroke-linecap="round"/>
<path opacity="0.23" d="M34.2535 154.71L17.127 167.602" stroke="#00B0F3" stroke-width="3.5" stroke-linecap="round"/>
<path opacity="0.23" d="M34.2539 154.71L51.3805 167.602" stroke="#00B0F3" stroke-width="3.5" stroke-linecap="round"/>
<path opacity="0.23" d="M51.3789 154.71L68.5055 167.602" stroke="#00B0F3" stroke-width="3.5" stroke-linecap="round"/>
<path opacity="0.23" d="M68.5059 154.71L85.6324 167.602" stroke="#00B0F3" stroke-width="3.5" stroke-linecap="round"/>
<path opacity="0.23" d="M102.759 154.71L85.6328 167.602" stroke="#00B0F3" stroke-width="3.5" stroke-linecap="round"/>
<path opacity="0.23" d="M119.886 154.71L102.76 167.602" stroke="#00B0F3" stroke-width="3.5" stroke-linecap="round"/>
<path opacity="0.23" d="M137.013 154.71L119.887 167.602" stroke="#00B0F3" stroke-width="3.5" stroke-linecap="round"/>
<path opacity="0.23" d="M154.138 154.71L137.012 167.602" stroke="#00B0F3" stroke-width="3.5" stroke-linecap="round"/>
<path opacity="0.23" d="M171.265 154.71L154.139 167.602" stroke="#00B0F3" stroke-width="3.5" stroke-linecap="round"/>
<path opacity="0.23" d="M171.266 154.71L188.392 167.602" stroke="#00B0F3" stroke-width="3.5" stroke-linecap="round"/>
<path opacity="0.23" d="M188.393 154.71L205.519 167.602" stroke="#00B0F3" stroke-width="3.5" stroke-linecap="round"/>
<path opacity="0.23" d="M222.646 154.71L205.52 167.602" stroke="#00B0F3" stroke-width="3.5" stroke-linecap="round"/>
<path opacity="0.23" d="M239.773 154.71L222.646 167.602" stroke="#00B0F3" stroke-width="3.5" stroke-linecap="round"/>
<path opacity="0.23" d="M256.898 154.71L239.771 167.602" stroke="#00B0F3" stroke-width="3.5" stroke-linecap="round"/>
<path opacity="0.23" d="M274.025 154.71L256.898 167.602" stroke="#00B0F3" stroke-width="3.5" stroke-linecap="round"/>
<path opacity="0.23" d="M291.152 154.71L274.025 167.602" stroke="#00B0F3" stroke-width="3.5" stroke-linecap="round"/>
<path opacity="0.23" d="M291.152 154.71L308.279 167.602" stroke="#00B0F3" stroke-width="3.5" stroke-linecap="round"/>
<path opacity="0.23" d="M308.279 154.71L325.406 167.602" stroke="#00B0F3" stroke-width="3.5" stroke-linecap="round"/>
<path opacity="0.23" d="M342.531 154.71L325.404 167.602" stroke="#00B0F3" stroke-width="3.5" stroke-linecap="round"/>
<path opacity="0.23" d="M342.531 154.71L359.658 167.602" stroke="#00B0F3" stroke-width="3.5" stroke-linecap="round"/>
<path opacity="0.23" d="M376.785 154.71L359.658 167.602" stroke="#00B0F3" stroke-width="3.5" stroke-linecap="round"/>
<path opacity="0.23" d="M393.912 154.71L376.785 167.602" stroke="#00B0F3" stroke-width="3.5" stroke-linecap="round"/>
<path opacity="0.23" d="M393.912 154.71L411.039 167.602" stroke="#00B0F3" stroke-width="3.5" stroke-linecap="round"/>
<path opacity="0.23" d="M428.164 154.71L411.037 167.602" stroke="#00B0F3" stroke-width="3.5" stroke-linecap="round"/>
<path opacity="0.23" d="M428.164 154.71L445.291 167.602" stroke="#00B0F3" stroke-width="3.5" stroke-linecap="round"/>
<path opacity="0.23" d="M462.418 154.71L445.291 167.602" stroke="#00B0F3" stroke-width="3.5" stroke-linecap="round"/>
<path opacity="0.17" d="M17.1266 167.603L0 180.495" stroke="#00B0F3" stroke-width="3.5" stroke-linecap="round"/>
<path opacity="0.17" d="M34.2535 167.603L17.127 180.495" stroke="#00B0F3" stroke-width="3.5" stroke-linecap="round"/>
<path opacity="0.17" d="M34.2539 167.603L51.3805 180.495" stroke="#00B0F3" stroke-width="3.5" stroke-linecap="round"/>
<path opacity="0.17" d="M51.3789 167.603L68.5055 180.495" stroke="#00B0F3" stroke-width="3.5" stroke-linecap="round"/>
<path opacity="0.17" d="M68.5059 167.603L85.6324 180.495" stroke="#00B0F3" stroke-width="3.5" stroke-linecap="round"/>
<path opacity="0.17" d="M85.6328 167.603L102.759 180.495" stroke="#00B0F3" stroke-width="3.5" stroke-linecap="round"/>
<path opacity="0.17" d="M119.886 167.603L102.76 180.495" stroke="#00B0F3" stroke-width="3.5" stroke-linecap="round"/>
<path opacity="0.17" d="M119.887 167.603L137.013 180.495" stroke="#00B0F3" stroke-width="3.5" stroke-linecap="round"/>
<path opacity="0.17" d="M154.138 167.603L137.012 180.495" stroke="#00B0F3" stroke-width="3.5" stroke-linecap="round"/>
<path opacity="0.17" d="M154.139 167.603L171.265 180.495" stroke="#00B0F3" stroke-width="3.5" stroke-linecap="round"/>
<path opacity="0.17" d="M188.392 167.603L171.266 180.495" stroke="#00B0F3" stroke-width="3.5" stroke-linecap="round"/>
<path opacity="0.17" d="M205.519 167.603L188.393 180.495" stroke="#00B0F3" stroke-width="3.5" stroke-linecap="round"/>
<path opacity="0.17" d="M205.52 167.603L222.646 180.495" stroke="#00B0F3" stroke-width="3.5" stroke-linecap="round"/>
<path opacity="0.17" d="M239.773 167.603L222.646 180.495" stroke="#00B0F3" stroke-width="3.5" stroke-linecap="round"/>
<path opacity="0.17" d="M256.898 167.603L239.771 180.495" stroke="#00B0F3" stroke-width="3.5" stroke-linecap="round"/>
<path opacity="0.17" d="M256.898 167.603L274.025 180.495" stroke="#00B0F3" stroke-width="3.5" stroke-linecap="round"/>
<path opacity="0.17" d="M274.025 167.603L291.152 180.495" stroke="#00B0F3" stroke-width="3.5" stroke-linecap="round"/>
<path opacity="0.17" d="M291.152 167.603L308.279 180.495" stroke="#00B0F3" stroke-width="3.5" stroke-linecap="round"/>
<path opacity="0.17" d="M325.406 167.603L308.279 180.495" stroke="#00B0F3" stroke-width="3.5" stroke-linecap="round"/>
<path opacity="0.17" d="M325.404 167.603L342.531 180.495" stroke="#00B0F3" stroke-width="3.5" stroke-linecap="round"/>
<path opacity="0.17" d="M342.531 167.603L359.658 180.495" stroke="#00B0F3" stroke-width="3.5" stroke-linecap="round"/>
<path opacity="0.17" d="M376.785 167.603L359.658 180.495" stroke="#00B0F3" stroke-width="3.5" stroke-linecap="round"/>
<path opacity="0.17" d="M376.785 167.603L393.912 180.495" stroke="#00B0F3" stroke-width="3.5" stroke-linecap="round"/>
<path opacity="0.17" d="M393.912 167.603L411.039 180.495" stroke="#00B0F3" stroke-width="3.5" stroke-linecap="round"/>
<path opacity="0.17" d="M428.164 167.603L411.037 180.495" stroke="#00B0F3" stroke-width="3.5" stroke-linecap="round"/>
<path opacity="0.17" d="M428.164 167.603L445.291 180.495" stroke="#00B0F3" stroke-width="3.5" stroke-linecap="round"/>
<path opacity="0.17" d="M462.418 167.603L445.291 180.495" stroke="#00B0F3" stroke-width="3.5" stroke-linecap="round"/>
<path opacity="0.1" d="M17.1266 180.495L0 193.387" stroke="#00B0F3" stroke-width="3.5" stroke-linecap="round"/>
<path opacity="0.1" d="M34.2535 180.495L17.127 193.387" stroke="#00B0F3" stroke-width="3.5" stroke-linecap="round"/>
<path opacity="0.1" d="M51.3805 180.495L34.2539 193.387" stroke="#00B0F3" stroke-width="3.5" stroke-linecap="round"/>
<path opacity="0.1" d="M51.3789 180.495L68.5055 193.387" stroke="#00B0F3" stroke-width="3.5" stroke-linecap="round"/>
<path opacity="0.1" d="M68.5059 180.495L85.6324 193.387" stroke="#00B0F3" stroke-width="3.5" stroke-linecap="round"/>
<path opacity="0.1" d="M85.6328 180.495L102.759 193.387" stroke="#00B0F3" stroke-width="3.5" stroke-linecap="round"/>
<path opacity="0.1" d="M102.76 180.495L119.886 193.387" stroke="#00B0F3" stroke-width="3.5" stroke-linecap="round"/>
<path opacity="0.1" d="M119.887 180.495L137.013 193.387" stroke="#00B0F3" stroke-width="3.5" stroke-linecap="round"/>
<path opacity="0.1" d="M154.138 180.495L137.012 193.387" stroke="#00B0F3" stroke-width="3.5" stroke-linecap="round"/>
<path opacity="0.1" d="M171.265 180.495L154.139 193.387" stroke="#00B0F3" stroke-width="3.5" stroke-linecap="round"/>
<path opacity="0.1" d="M171.266 180.495L188.392 193.387" stroke="#00B0F3" stroke-width="3.5" stroke-linecap="round"/>
<path opacity="0.1" d="M188.393 180.495L205.519 193.387" stroke="#00B0F3" stroke-width="3.5" stroke-linecap="round"/>
<path opacity="0.1" d="M205.52 180.495L222.646 193.387" stroke="#00B0F3" stroke-width="3.5" stroke-linecap="round"/>
<path opacity="0.1" d="M222.646 180.495L239.773 193.387" stroke="#00B0F3" stroke-width="3.5" stroke-linecap="round"/>
<path opacity="0.1" d="M239.771 180.495L256.898 193.387" stroke="#00B0F3" stroke-width="3.5" stroke-linecap="round"/>
<path opacity="0.1" d="M274.025 180.495L256.898 193.387" stroke="#00B0F3" stroke-width="3.5" stroke-linecap="round"/>
<path opacity="0.1" d="M291.152 180.495L274.025 193.387" stroke="#00B0F3" stroke-width="3.5" stroke-linecap="round"/>
<path opacity="0.1" d="M308.279 180.495L291.152 193.387" stroke="#00B0F3" stroke-width="3.5" stroke-linecap="round"/>
<path opacity="0.1" d="M308.279 180.495L325.406 193.387" stroke="#00B0F3" stroke-width="3.5" stroke-linecap="round"/>
<path opacity="0.1" d="M325.404 180.495L342.531 193.387" stroke="#00B0F3" stroke-width="3.5" stroke-linecap="round"/>
<path opacity="0.1" d="M359.658 180.495L342.531 193.387" stroke="#00B0F3" stroke-width="3.5" stroke-linecap="round"/>
<path opacity="0.1" d="M359.658 180.495L376.785 193.387" stroke="#00B0F3" stroke-width="3.5" stroke-linecap="round"/>
<path opacity="0.1" d="M376.785 180.495L393.912 193.387" stroke="#00B0F3" stroke-width="3.5" stroke-linecap="round"/>
<path opacity="0.1" d="M411.039 180.495L393.912 193.387" stroke="#00B0F3" stroke-width="3.5" stroke-linecap="round"/>
<path opacity="0.1" d="M411.037 180.495L428.164 193.387" stroke="#00B0F3" stroke-width="3.5" stroke-linecap="round"/>
<path opacity="0.1" d="M445.291 180.495L428.164 193.387" stroke="#00B0F3" stroke-width="3.5" stroke-linecap="round"/>
<path opacity="0.1" d="M462.418 180.495L445.291 193.387" stroke="#00B0F3" stroke-width="3.5" stroke-linecap="round"/>
</svg>
