<svg width="25" height="24" viewBox="0 0 25 24" fill="none" xmlns="http://www.w3.org/2000/svg">
<path d="M16.7794 22.1H12.9794C12.4194 22.1 11.1994 21.93 10.5494 21.28L7.51937 18.94L8.43937 17.75L11.5394 20.15C11.7894 20.39 12.4194 20.59 12.9794 20.59H16.7794C17.6794 20.59 18.6494 19.87 18.8494 19.06L21.2694 11.71C21.4294 11.27 21.3994 10.87 21.1894 10.58C20.9694 10.27 20.5694 10.09 20.0794 10.09H16.0794C15.5594 10.09 15.0794 9.86999 14.7494 9.48999C14.4094 9.09999 14.2594 8.57999 14.3394 8.03999L14.8394 4.82999C14.9594 4.26999 14.5794 3.63999 14.0394 3.45999C13.5494 3.27999 12.9194 3.53999 12.6994 3.85999L8.59938 9.95999L7.35938 9.12999L11.4594 3.02999C12.0894 2.08999 13.4694 1.63999 14.5494 2.04999C15.7994 2.45999 16.5994 3.83999 16.3194 5.11999L15.8294 8.26999C15.8194 8.33999 15.8194 8.43999 15.8894 8.51999C15.9394 8.56999 16.0094 8.59999 16.0894 8.59999H20.0894C21.0694 8.59999 21.9194 9.00999 22.4194 9.71999C22.9094 10.41 23.0094 11.32 22.6894 12.2L20.2994 19.48C19.9294 20.93 18.3894 22.1 16.7794 22.1Z" fill="#4D4D4D"/>
<path d="M5.88086 21H4.88086C3.03086 21 2.13086 20.13 2.13086 18.35V8.55002C2.13086 6.77002 3.03086 5.90002 4.88086 5.90002H5.88086C7.73086 5.90002 8.63086 6.77002 8.63086 8.55002V18.35C8.63086 20.13 7.73086 21 5.88086 21ZM4.88086 7.40002C3.79086 7.40002 3.63086 7.66002 3.63086 8.55002V18.35C3.63086 19.24 3.79086 19.5 4.88086 19.5H5.88086C6.97086 19.5 7.13086 19.24 7.13086 18.35V8.55002C7.13086 7.66002 6.97086 7.40002 5.88086 7.40002H4.88086Z" fill="#4D4D4D"/>
</svg>
