<svg width="20" height="22" viewBox="0 0 20 22" fill="none" xmlns="http://www.w3.org/2000/svg">
<path d="M10.4993 21.8884C9.92435 21.8884 9.38268 21.5384 8.99935 20.9284L7.74935 18.9284C7.72435 18.8884 7.62435 18.8384 7.58268 18.8284H7.16602C3.69102 18.8284 1.54102 17.6984 1.54102 12.0784V7.07837C1.54102 2.65837 3.48268 0.328369 7.16602 0.328369H13.8327C17.516 0.328369 19.4577 2.65837 19.4577 7.07837V12.0784C19.4577 16.4984 17.516 18.8284 13.8327 18.8284H13.416C13.3493 18.8284 13.291 18.8684 13.2493 18.9284L11.9993 20.9284C11.616 21.5384 11.0743 21.8884 10.4993 21.8884ZM7.16602 1.82837C4.18268 1.82837 2.79102 3.49837 2.79102 7.07837V12.0784C2.79102 16.5984 4.08268 17.3284 7.16602 17.3284H7.58268C8.00768 17.3284 8.49101 17.6184 8.74935 18.0284L9.99935 20.0284C10.291 20.4884 10.7077 20.4884 10.9993 20.0284L12.2493 18.0284C12.5243 17.5884 12.9577 17.3284 13.416 17.3284H13.8327C16.816 17.3284 18.2077 15.6584 18.2077 12.0784V7.07837C18.2077 3.49837 16.816 1.82837 13.8327 1.82837H7.16602Z" fill="#4D4D4D"/>
<path d="M10.4993 11.0784C10.0327 11.0784 9.66602 10.6284 9.66602 10.0784C9.66602 9.52837 10.041 9.07837 10.4993 9.07837C10.9577 9.07837 11.3327 9.52837 11.3327 10.0784C11.3327 10.6284 10.966 11.0784 10.4993 11.0784Z" fill="#4D4D4D"/>
<path d="M13.8333 11.0784C13.3667 11.0784 13 10.6284 13 10.0784C13 9.52837 13.375 9.07837 13.8333 9.07837C14.2917 9.07837 14.6667 9.52837 14.6667 10.0784C14.6667 10.6284 14.3 11.0784 13.8333 11.0784Z" fill="#4D4D4D"/>
<path d="M7.16732 11.0784C6.70065 11.0784 6.33398 10.6284 6.33398 10.0784C6.33398 9.52837 6.70898 9.07837 7.16732 9.07837C7.62565 9.07837 8.00065 9.52837 8.00065 10.0784C8.00065 10.6284 7.63398 11.0784 7.16732 11.0784Z" fill="#4D4D4D"/>
</svg>
