<svg width="92" height="73" viewBox="0 0 92 73" fill="none" xmlns="http://www.w3.org/2000/svg">
<path fill-rule="evenodd" clip-rule="evenodd" d="M0 32.1341H18.5902V65.2116H0V32.1341ZM63.9089 15.3408C70.6546 15.3408 76.1276 20.8063 76.1276 27.5596C76.1276 34.3053 70.6621 39.7783 63.9089 39.7783C57.1631 39.7783 51.6901 34.3128 51.6901 27.5596C51.6901 20.8138 57.1556 15.3408 63.9089 15.3408ZM42.4661 0C48.2835 0 53.0078 4.7168 53.0078 10.5417C53.0078 16.3591 48.291 21.0833 42.4661 21.0833C36.6488 21.0833 31.9245 16.3665 31.9245 10.5417C31.9245 4.72428 36.6413 0 42.4661 0ZM43.5368 12.7803C43.5368 12.4359 43.4544 12.1738 43.2822 11.9792C43.11 11.7845 42.818 11.6048 42.3988 11.4326C41.9795 11.2604 41.5902 11.0882 41.2383 10.916C40.8864 10.7363 40.5719 10.5342 40.3174 10.3021C40.0553 10.07 39.8607 9.80046 39.7259 9.50098C39.5837 9.19401 39.5238 8.82715 39.5238 8.3929C39.5238 7.66667 39.7708 7.06771 40.2575 6.60352C40.7441 6.13932 41.3955 5.85482 42.2116 5.77995V4.80664H43.2373V5.80241C44.0234 5.91471 44.6449 6.23665 45.0941 6.76823C45.5433 7.2998 45.7679 7.97363 45.7679 8.78223H43.5742C43.5742 8.33301 43.4844 7.98861 43.3122 7.74902C43.14 7.50944 42.8929 7.38965 42.5784 7.38965C42.2939 7.38965 42.0693 7.47949 41.9196 7.65169C41.7624 7.83138 41.6875 8.07845 41.6875 8.38542C41.6875 8.69987 41.7773 8.95443 41.957 9.1416C42.1442 9.32878 42.4287 9.50846 42.8255 9.68067C43.2223 9.85287 43.6042 10.0251 43.9561 10.2048C44.3079 10.3919 44.6149 10.5941 44.8695 10.8262C45.1315 11.0583 45.3337 11.3353 45.4759 11.6423C45.6182 11.9492 45.7005 12.3161 45.7005 12.7578C45.7005 13.4915 45.4684 14.0905 44.9967 14.5547C44.5251 15.0189 43.8962 15.2884 43.0951 15.3633V16.2767H42.0768V15.3633C41.141 15.2585 40.4222 14.944 39.9206 14.4049C39.4189 13.8584 39.1644 13.1471 39.1644 12.2562H41.3431C41.3431 12.7503 41.4479 13.1172 41.665 13.3792C41.8822 13.6338 42.1891 13.7686 42.5859 13.7686C42.8779 13.7686 43.1025 13.6787 43.2747 13.5065C43.4395 13.3268 43.5293 13.0872 43.5368 12.7803ZM65.1442 30.1501C65.1442 29.7533 65.0469 29.4463 64.8522 29.2217C64.6576 28.9971 64.3206 28.7874 63.8265 28.5853C63.3398 28.3906 62.8906 28.181 62.4788 27.9863C62.0671 27.7842 61.7077 27.5446 61.4082 27.2751C61.1087 27.0055 60.8841 26.6986 60.7194 26.3467C60.5547 25.9948 60.4873 25.568 60.4873 25.0664C60.4873 24.2204 60.7718 23.5316 61.3408 22.9925C61.9023 22.4535 62.6585 22.1315 63.6019 22.0417V20.9111H64.7923V22.0716C65.6982 22.2064 66.417 22.5807 66.9411 23.1947C67.4652 23.8086 67.7272 24.5872 67.7272 25.5306H65.1966C65.1966 25.0065 65.0918 24.6172 64.8971 24.3327C64.7025 24.0557 64.4105 23.9134 64.0436 23.9134C63.7142 23.9134 63.4596 24.0182 63.2799 24.2204C63.1003 24.4225 63.0104 24.7145 63.0104 25.0739C63.0104 25.4408 63.1152 25.7327 63.3249 25.9499C63.5345 26.167 63.8639 26.3766 64.3281 26.5713C64.7923 26.766 65.2266 26.9756 65.6383 27.1777C66.0501 27.3874 66.402 27.6344 66.7015 27.8965C67.001 28.166 67.2331 28.4805 67.4053 28.8398C67.5775 29.1992 67.6598 29.626 67.6598 30.1276C67.6598 30.9811 67.3903 31.6774 66.8438 32.209C66.3047 32.7406 65.571 33.0625 64.6351 33.1449V34.2005H63.4447V33.1374C62.3591 33.0176 61.528 32.6507 60.944 32.0218C60.3675 31.3929 60.0755 30.5618 60.0755 29.5286H62.5986C62.5986 30.0977 62.7259 30.5244 62.973 30.8239C63.2201 31.1159 63.5794 31.2731 64.0436 31.2731C64.3805 31.2731 64.6426 31.1683 64.8447 30.9736C65.0394 30.779 65.1367 30.502 65.1442 30.1501ZM63.9089 17.7441C69.3219 17.7441 73.7168 22.1315 73.7168 27.5521C73.7168 32.9652 69.3294 37.36 63.9089 37.36C58.4958 37.36 54.1009 32.9727 54.1009 27.5521C54.1009 22.1315 58.4958 17.7441 63.9089 17.7441ZM22.3337 62.4339V34.792H34.7695C40.0404 35.7354 45.3112 38.5954 50.582 41.9121H60.2402C64.6126 42.1742 66.9036 46.6064 62.651 49.5189C59.2669 52.0046 54.7972 51.8623 50.2152 51.4505C47.0557 51.2933 46.9209 55.5384 50.2152 55.5534C51.3607 55.6432 52.6035 55.3737 53.6891 55.3737C59.4092 55.3662 64.111 54.2731 66.9935 49.7585L68.4385 46.3818L82.806 39.2617C89.9935 36.8958 95.0996 44.4128 89.8063 49.6462C79.3994 57.2155 68.7305 63.4447 57.8145 68.4759C49.8857 73.2975 41.957 73.1328 34.0358 68.4759L22.3337 62.4339Z" fill="#4D4D4D"/>
</svg>
