<svg width="25" height="24" viewBox="0 0 25 24" fill="none" xmlns="http://www.w3.org/2000/svg">
  <path d="M16.6391 2.96004L7.60914 5.96004C1.53914 7.99004 1.53914 11.3 7.60914 13.32L10.2891 14.21L11.1791 16.89C13.1991 22.96 16.5191 22.96 18.5391 16.89L21.5491 7.87004C22.8891 3.82004 20.6891 1.61004 16.6391 2.96004ZM16.9591 8.34004L13.1591 12.16C13.0091 12.31 12.8191 12.38 12.6291 12.38C12.4391 12.38 12.2491 12.31 12.0991 12.16C11.8091 11.87 11.8091 11.39 12.0991 11.1L15.8991 7.28004C16.1891 6.99004 16.6691 6.99004 16.9591 7.28004C17.2491 7.57004 17.2491 8.05004 16.9591 8.34004Z" fill="#00B0F3"/>
  </svg>
  