<svg width="92" height="82" viewBox="0 0 92 82" fill="none" xmlns="http://www.w3.org/2000/svg">
<path fill-rule="evenodd" clip-rule="evenodd" d="M2.32096 42.7791H15.9473C16.5622 42.7811 17.1514 43.0263 17.5863 43.4611C18.0211 43.8959 18.2663 44.4851 18.2682 45.1001V72.9517C18.2663 73.5666 18.0211 74.1558 17.5863 74.5906C17.1514 75.0255 16.5622 75.2706 15.9473 75.2726H2.32096C1.70601 75.2706 1.11681 75.0255 0.681975 74.5906C0.247137 74.1558 0.00197417 73.5666 0 72.9517L0 45.1001C0.00197417 44.4851 0.247137 43.8959 0.681975 43.4611C1.11681 43.0263 1.70601 42.7811 2.32096 42.7791ZM21.278 72.5474V45.422H35.7653C40.9463 46.3504 46.1273 49.1655 51.3008 52.4224H60.7943C65.0843 52.6769 67.3379 57.0343 63.1676 59.9093C59.8359 62.3501 55.4486 62.2078 50.9489 61.811C47.8418 61.6538 47.707 65.8241 50.9489 65.839C52.0719 65.9289 53.2923 65.6668 54.363 65.6593C59.9782 65.6593 64.6051 64.5812 67.4352 60.1489L68.8802 56.7723L82.9932 49.772C90.0609 47.451 95.0771 54.8407 89.8737 59.9767C80.0274 67.1649 69.4943 73.3618 58.4284 78.477C50.6419 83.2163 42.848 83.0516 35.0615 78.477L21.2855 72.5474H21.278ZM46.4193 6.22769C46.333 6.15686 46.2339 6.10346 46.1273 6.07047C46.0484 6.05249 45.9665 6.05249 45.8877 6.07047C45.6758 6.09176 45.4801 6.19361 45.3411 6.35497L43.4469 8.60106C43.2781 8.80414 43.0443 8.94265 42.7851 8.99313C42.5258 9.04361 42.2571 9.00297 42.0244 8.87808C41.7699 8.74332 41.5003 8.61604 41.2308 8.50373C40.9613 8.39143 40.6393 8.27164 40.3548 8.17431C40.0703 8.07698 39.7783 7.99462 39.4414 7.89729C39.1045 7.79996 38.82 7.72509 38.528 7.65771C38.286 7.59625 38.0705 7.45792 37.9139 7.2635C37.7573 7.06908 37.668 6.82909 37.6595 6.57958L37.375 3.49495C37.3631 3.38578 37.3328 3.27944 37.2852 3.18049C37.2391 3.09978 37.1811 3.02656 37.113 2.96337C37.0452 2.90121 36.9628 2.8574 36.8734 2.83609C36.7724 2.813 36.6674 2.813 36.5664 2.83609L32.5908 3.22541C32.4846 3.23971 32.3811 3.27 32.2839 3.31526C32.1865 3.36839 32.1001 3.43953 32.0293 3.52489C31.9703 3.59874 31.9247 3.68236 31.8945 3.77196C31.8791 3.8536 31.8791 3.9374 31.8945 4.01903L32.1716 6.93147C32.1973 7.20096 32.1274 7.47092 31.9741 7.69405C31.8207 7.91718 31.5938 8.07924 31.333 8.15185C31.0934 8.2342 30.8239 8.33153 30.5169 8.45881C30.21 8.58609 29.9479 8.71337 29.7083 8.84065H29.6634C29.4089 8.97541 29.1393 9.11767 28.9147 9.26741H28.8398C28.5853 9.41715 28.3382 9.57437 28.0911 9.7316C27.8868 9.86674 27.6449 9.93373 27.4001 9.92297C27.1553 9.91221 26.9202 9.82425 26.7285 9.6717L24.138 7.66519C24.0591 7.60175 23.9707 7.55121 23.876 7.51545C23.802 7.49898 23.7253 7.49898 23.6514 7.51545C23.5444 7.53076 23.4407 7.56365 23.3444 7.61278H23.2995C23.23 7.66201 23.1671 7.71988 23.1123 7.78498L20.6042 10.8322C20.5286 10.9232 20.4702 11.0272 20.432 11.1392C20.4172 11.2183 20.4172 11.2996 20.432 11.3787V11.4311C20.4398 11.5201 20.4653 11.6066 20.5068 11.6857V11.7231C20.5564 11.7968 20.617 11.8625 20.6865 11.9178L22.9326 13.812C23.1387 13.9804 23.2793 14.2156 23.3299 14.4769C23.3805 14.7381 23.3379 15.0089 23.2096 15.242C23.0752 15.4855 22.9528 15.7353 22.8428 15.9907C22.7183 16.277 22.6083 16.5693 22.5133 16.8667C22.4235 17.1437 22.3262 17.4432 22.2288 17.7801C22.1315 18.117 22.0566 18.409 21.9893 18.6935C21.9429 18.9389 21.8176 19.1624 21.6324 19.33C21.4472 19.4976 21.2123 19.6001 20.9635 19.6219L17.8714 19.9064C17.7646 19.9182 17.6608 19.9486 17.5645 19.9962C17.4799 20.0429 17.4039 20.1037 17.3398 20.1759C17.2816 20.2463 17.2383 20.3279 17.2126 20.4155C17.1924 20.5143 17.1924 20.6162 17.2126 20.715L17.6019 24.6906C17.6127 24.8 17.6431 24.9065 17.6917 25.005C17.7417 25.1024 17.8104 25.1889 17.8939 25.2596C17.9695 25.3158 18.0527 25.3612 18.141 25.3944C18.2326 25.4101 18.3263 25.4101 18.418 25.3944L21.3304 25.1173C21.5928 25.101 21.8528 25.1754 22.0669 25.3281C22.2809 25.4808 22.4359 25.7024 22.5059 25.9559C22.5882 26.1955 22.693 26.4725 22.8203 26.772C22.9476 27.0714 23.0674 27.3335 23.2021 27.588L23.2546 27.6929C23.3743 27.925 23.5091 28.1795 23.6589 28.4416L24.1605 29.2651C24.2901 29.4695 24.3525 29.7093 24.3391 29.951C24.3257 30.1926 24.2371 30.424 24.0856 30.6128L22.0117 33.1658C21.9572 33.2399 21.9119 33.3204 21.877 33.4054C21.8652 33.4773 21.8652 33.5507 21.877 33.6226C21.8867 33.7321 21.9172 33.8388 21.9668 33.937C22.0152 34.0268 22.0814 34.1058 22.1615 34.1691C23.1947 35.0301 24.2578 35.8761 25.2835 36.7446C25.3519 36.7938 25.4277 36.8318 25.5081 36.8569C25.602 36.8763 25.6988 36.8763 25.7926 36.8569C25.9066 36.8449 26.0178 36.8146 26.1221 36.7671H26.1595C26.2304 36.7194 26.298 36.6669 26.3617 36.6099L28.2334 34.3638C28.4016 34.1577 28.6364 34.0165 28.8973 33.9646C29.1582 33.9127 29.4291 33.9532 29.6634 34.0793C29.9214 34.2175 30.1863 34.3424 30.457 34.4536C30.749 34.5809 31.041 34.6857 31.333 34.783C31.625 34.8804 31.902 34.9702 32.2464 35.0675C32.5908 35.1649 32.8678 35.2397 33.1598 35.3071C33.4066 35.3632 33.6278 35.4994 33.7889 35.6944C33.9501 35.8895 34.0422 36.1324 34.0508 36.3852L34.3353 39.4324C34.3472 39.5402 34.3803 39.6445 34.4326 39.7394C34.474 39.8253 34.5326 39.9017 34.6048 39.964C34.6772 40.0193 34.7581 40.0623 34.8444 40.0913C34.9458 40.1107 35.05 40.1107 35.1514 40.0913L39.1195 39.702C39.2312 39.6911 39.3402 39.6607 39.4414 39.6121C39.5305 39.5656 39.6114 39.5049 39.681 39.4324C39.7485 39.3495 39.8016 39.2559 39.8382 39.1554C39.861 39.067 39.861 38.9743 39.8382 38.8859L39.5687 35.966C39.5416 35.7113 39.6007 35.455 39.7364 35.2379C39.8721 35.0207 40.0767 34.8553 40.3174 34.7681C40.6094 34.6707 40.9014 34.5584 41.1859 34.4386H41.2757C41.5153 34.3338 41.7549 34.214 42.0244 34.0793H42.0693C42.3538 33.937 42.6309 33.7873 42.8779 33.6375L43.709 33.1359C43.9122 33.0057 44.1516 32.9436 44.3925 32.9584C44.6334 32.9732 44.8634 33.0642 45.0492 33.2183L47.5798 35.2847C47.6554 35.3409 47.7386 35.3862 47.8268 35.4194C47.9056 35.4382 47.9876 35.4382 48.0664 35.4194C48.1734 35.4143 48.2781 35.3862 48.3734 35.3371C48.4589 35.2826 48.5349 35.2143 48.598 35.1349C49.459 34.1017 50.305 33.0386 51.1735 32.0128C51.224 31.948 51.2621 31.8744 51.2858 31.7957C51.3016 31.7015 51.3016 31.6054 51.2858 31.5112C51.2728 31.3975 51.2425 31.2864 51.196 31.1818C51.1475 31.092 51.0842 31.011 51.0088 30.9422L48.7627 29.1154C48.5523 28.9487 48.4076 28.713 48.3542 28.45C48.3008 28.1869 48.342 27.9135 48.4707 27.6779C48.6089 27.4199 48.7339 27.155 48.8451 26.8843C48.9723 26.5773 49.0846 26.2853 49.1745 26.0158C49.2643 25.7462 49.3542 25.4318 49.4515 25.0949C49.5488 24.758 49.6237 24.4809 49.6911 24.1815C49.7481 23.9311 49.8876 23.7071 50.0872 23.5456C50.2868 23.384 50.5349 23.2942 50.7917 23.2905L53.9062 22.9611C54.0154 22.9492 54.1218 22.9189 54.2207 22.8712C54.2997 22.8228 54.3726 22.765 54.4378 22.699C54.4931 22.6267 54.5361 22.5458 54.5651 22.4595C54.5812 22.3653 54.5812 22.2691 54.5651 22.175L54.1758 18.2069C54.1628 18.1003 54.1325 17.9966 54.0859 17.8999V17.855C54.0344 17.7761 53.9713 17.7055 53.8988 17.6453C53.8249 17.5863 53.7413 17.5407 53.6517 17.5106C53.5701 17.4952 53.4863 17.4952 53.4046 17.5106L50.4622 17.7202C50.208 17.7446 49.9528 17.6845 49.7362 17.5491C49.5197 17.4138 49.3538 17.2107 49.2643 16.9715C49.167 16.6945 49.0622 16.4025 48.9274 16.103C48.7926 15.8035 48.6654 15.4891 48.5381 15.242V15.1896C48.4111 14.9331 48.2712 14.6832 48.1188 14.4409C47.9691 14.1864 47.7969 13.9318 47.6247 13.6922C47.4841 13.4853 47.4147 13.2383 47.4269 12.9884C47.439 12.7386 47.5321 12.4994 47.6921 12.3071L49.7435 9.76903C49.8084 9.69118 49.8591 9.60247 49.8932 9.50699C49.9091 9.43548 49.9091 9.36137 49.8932 9.28987C49.8778 9.18052 49.8449 9.07436 49.7959 8.97541V8.92301C49.7519 8.85621 49.699 8.79576 49.6387 8.74332L46.8311 6.43733C46.6804 6.39759 46.54 6.32612 46.4193 6.22769ZM77.4004 24.6457C77.2824 24.5452 77.1453 24.4695 76.9974 24.4232C76.8494 24.3769 76.6937 24.3609 76.5394 24.3761C76.2299 24.4112 75.9457 24.564 75.7458 24.8029L74.6003 26.188C74.2362 25.9995 73.8583 25.8393 73.4697 25.7088C73.0654 25.5815 72.721 25.4692 72.2868 25.3719L72.1071 23.4403C72.0797 23.1318 71.9318 22.8466 71.6953 22.6466C71.5785 22.5476 71.4421 22.4744 71.295 22.4318C71.1479 22.3892 70.9934 22.3782 70.8418 22.3996L68.401 22.6392C68.1106 22.6784 67.8445 22.8222 67.6523 23.0434C67.5507 23.1608 67.4743 23.2978 67.428 23.4459C67.3816 23.594 67.3662 23.7501 67.3828 23.9045L67.5475 25.6789C67.152 25.8068 66.7687 25.9697 66.402 26.1655C66.0385 26.345 65.6882 26.5502 65.3538 26.7794L63.8115 25.5366C63.6998 25.433 63.5671 25.3547 63.4224 25.3069C63.2777 25.2591 63.1244 25.243 62.973 25.2596C62.6619 25.295 62.377 25.4509 62.1794 25.6938L60.682 27.5581C60.5818 27.6762 60.5062 27.8132 60.4598 27.961C60.4134 28.1088 60.397 28.2644 60.4117 28.4186C60.4263 28.5728 60.4717 28.7225 60.5451 28.8589C60.6185 28.9953 60.7185 29.1156 60.8392 29.2127L62.1419 30.3582C61.9528 30.721 61.795 31.0992 61.6702 31.4888C61.5355 31.8931 61.4232 32.2375 61.3259 32.6717L59.3942 32.8514C59.0864 32.8811 58.8021 33.0286 58.6006 33.2632C58.5088 33.3847 58.4434 33.524 58.4086 33.6723C58.3737 33.8206 58.3703 33.9745 58.3984 34.1242L58.638 36.5574C58.6681 36.863 58.8157 37.1449 59.0498 37.3436C59.1653 37.4458 59.3009 37.5226 59.4479 37.569C59.595 37.6155 59.7501 37.6305 59.9033 37.6131L61.6777 37.4484C61.8003 37.8401 61.9556 38.2207 62.1419 38.5864C62.3275 38.9563 62.5324 39.3162 62.7559 39.6645L61.513 41.1619C61.4104 41.2741 61.3331 41.407 61.2866 41.5518C61.2401 41.6965 61.2254 41.8495 61.2435 42.0005C61.2865 42.2948 61.4389 42.5621 61.6702 42.7492L63.5645 44.3739C63.6833 44.4719 63.8211 44.5444 63.9693 44.5869C64.1174 44.6294 64.2727 44.641 64.4255 44.6209C64.7358 44.591 65.0239 44.4469 65.234 44.2166L66.387 42.8091C66.749 43.002 67.1273 43.1623 67.5176 43.2882C67.9054 43.4222 68.3003 43.5347 68.7005 43.6252L68.8802 45.5643C68.9125 45.8692 69.0598 46.1503 69.292 46.3504C69.41 46.4502 69.5475 46.5243 69.6958 46.5681C69.844 46.612 69.9997 46.6245 70.153 46.605L72.5863 46.3654C72.8909 46.3324 73.1718 46.1852 73.3724 45.9536C73.474 45.8363 73.5504 45.6993 73.5968 45.5512C73.6432 45.403 73.6585 45.2469 73.6419 45.0926L73.4697 43.3182C73.8662 43.1929 74.2498 43.03 74.6152 42.8315C74.9833 42.6498 75.3407 42.4473 75.6859 42.2251L77.1833 43.4679C77.3006 43.5696 77.4376 43.6459 77.5857 43.6923C77.7338 43.7387 77.8899 43.754 78.0443 43.7375C78.1984 43.7232 78.3482 43.6781 78.4845 43.6048C78.6208 43.5315 78.741 43.4315 78.8379 43.3107L80.3952 41.424C80.4934 41.305 80.5666 41.1674 80.6103 41.0195C80.6541 40.8715 80.6675 40.7162 80.6497 40.563C80.6208 40.2508 80.4734 39.9614 80.238 39.7544L78.8304 38.6164C79.0426 38.257 79.2206 37.8785 79.362 37.4858C79.495 37.1002 79.6074 36.7079 79.6989 36.3104L81.638 36.1307C81.9304 36.0922 82.1976 35.9452 82.3867 35.7189C82.4869 35.6011 82.5613 35.4636 82.6051 35.3153C82.649 35.1671 82.6613 35.0112 82.6413 34.8579L82.4017 32.4246C82.3598 32.1334 82.2134 31.8673 81.9899 31.6759C81.8732 31.573 81.7365 31.4952 81.5883 31.4476C81.4402 31.3999 81.2838 31.3833 81.1289 31.3989L79.3545 31.5711C79.2211 31.1777 79.0584 30.7948 78.8678 30.4256C78.6962 30.0579 78.4907 29.707 78.2539 29.3774L79.5042 27.8351C79.6049 27.7217 79.6808 27.5886 79.7272 27.4442C79.7736 27.2998 79.7895 27.1474 79.7738 26.9966C79.7387 26.687 79.5859 26.4029 79.347 26.203L77.4753 24.6681H77.4154L77.4004 24.6457ZM70.0033 29.7593C70.6383 29.7017 71.2786 29.7652 71.89 29.9464C72.4761 30.1329 73.022 30.4275 73.4997 30.8149C73.9744 31.2071 74.3685 31.6877 74.6602 32.23C74.9653 32.7866 75.149 33.4016 75.1992 34.0343C75.2571 34.6694 75.1936 35.3097 75.012 35.9211C74.8393 36.5093 74.5519 37.0575 74.1664 37.5342C73.7809 38.0109 73.305 38.4067 72.766 38.6987C72.2073 38.9978 71.5931 39.1787 70.9616 39.2303C70.3265 39.292 69.6855 39.2284 69.0749 39.0431C68.4869 38.8593 67.9385 38.5673 67.4577 38.1821C66.9872 37.7848 66.596 37.3022 66.3047 36.7596C65.9827 36.2022 65.786 35.5814 65.7282 34.9403C65.6275 34.006 65.8091 33.063 66.2495 32.233C66.6899 31.4029 67.3689 30.7238 68.1989 30.2834C68.7548 29.9765 69.3701 29.7927 70.0033 29.7443V29.7593ZM46.8385 3.86929C47.1006 3.95161 47.3519 4.0647 47.5872 4.20621C47.7522 4.24571 47.9059 4.32255 48.0365 4.43082L51.0537 6.93896C51.3336 7.16835 51.5717 7.44445 51.7575 7.75504L51.8174 7.85237C52.0082 8.2055 52.1302 8.5917 52.1768 8.99039C52.229 9.40896 52.1855 9.83393 52.0495 10.2332C51.9307 10.584 51.7507 10.911 51.5179 11.199L49.9756 13.1157L50.0729 13.2729C50.2693 13.602 50.4468 13.942 50.6045 14.2912C50.7842 14.6406 50.9339 14.9625 51.0537 15.257L51.1136 15.4067L53.1351 15.2121C53.5275 15.1666 53.925 15.2023 54.3031 15.3169H54.363C54.7101 15.4319 55.0344 15.6067 55.3213 15.8335L55.4261 15.9233C55.6934 16.158 55.9188 16.4365 56.0924 16.7469L56.1523 16.8442C56.3245 17.1836 56.4335 17.5515 56.4743 17.9298C56.4743 18.9331 56.7288 20.8797 56.8636 21.9279C56.9084 22.3065 56.8804 22.6903 56.7812 23.0584V23.1258C56.6669 23.5119 56.476 23.8709 56.2197 24.1815C55.9737 24.4861 55.6712 24.7403 55.3288 24.9302C54.9733 25.1127 54.5878 25.2294 54.1908 25.2746L51.8099 25.4842L51.75 25.7013C51.6676 26.0008 51.5628 26.3377 51.4281 26.7196C51.2933 27.1014 51.181 27.4683 51.0537 27.7453L50.9938 27.8726L52.6335 29.1977C52.9447 29.4668 53.1992 29.7951 53.3822 30.1636C53.5189 30.4923 53.5998 30.8414 53.6217 31.1968V31.2342C53.6721 31.636 53.6389 32.0438 53.5244 32.4321C53.4205 32.7969 53.2504 33.1395 53.0228 33.4429L50.4098 36.6024C50.1603 36.9093 49.8524 37.1638 49.5039 37.3511C49.1509 37.5485 48.7609 37.6709 48.3584 37.7104C47.9591 37.7568 47.5545 37.7238 47.168 37.6131H47.1081C46.7673 37.4974 46.4484 37.3253 46.1647 37.104L44.2256 35.5242L44.0309 35.6365C43.7015 35.8312 43.3796 36.0034 43.0726 36.1531C42.7656 36.3029 42.5036 36.4377 42.1966 36.5724L41.9271 36.6623L42.1367 38.6837C42.1831 39.0999 42.1397 39.5212 42.0094 39.9191C41.8831 40.288 41.6903 40.6305 41.4404 40.9298L41.3955 40.9748C41.1532 41.2472 40.8673 41.4775 40.5495 41.6561H40.4746C40.137 41.8261 39.772 41.9351 39.3965 41.978C38.3932 41.978 36.4466 42.2401 35.3984 42.3748C34.9966 42.4191 34.59 42.3861 34.2005 42.2775C33.8139 42.1609 33.4548 41.9674 33.1449 41.7085H33.1074C32.8194 41.4531 32.5787 41.149 32.3962 40.8101C32.2092 40.4564 32.0922 40.07 32.0518 39.672L31.8346 37.2987L31.625 37.2388L30.6068 36.9168C30.2474 36.797 29.8581 36.6698 29.5811 36.535L29.4388 36.4751L28.0911 38.1147C27.8442 38.3944 27.5471 38.6255 27.2152 38.7961L27.1328 38.8485C26.8039 39.0025 26.4526 39.1036 26.0921 39.1479H26.0547C25.6504 39.1978 25.2403 39.1647 24.8493 39.0506C24.4896 38.9418 24.1524 38.7693 23.8535 38.5415L20.6865 35.9285C20.3812 35.6773 20.127 35.3698 19.9378 35.0226C19.7469 34.6722 19.6249 34.2884 19.5785 33.8921C19.53 33.4883 19.5735 33.0788 19.7057 32.6942C19.8165 32.349 19.989 32.0268 20.2148 31.7433L21.7946 29.8042L21.7122 29.617C21.5475 29.34 21.3903 29.0405 21.2331 28.7261C21.0459 28.3817 20.8887 28.0522 20.7464 27.7153L20.679 27.5431L18.6725 27.7303C18.2594 27.779 17.8406 27.7381 17.4447 27.6105C17.0958 27.496 16.7709 27.3184 16.4863 27.0864L16.374 27.0041C16.0688 26.741 15.815 26.4237 15.6253 26.0682C15.4542 25.731 15.3452 25.3658 15.3034 24.9901C15.3034 23.9793 15.0413 22.0627 14.9066 20.9995C14.845 20.5874 14.8679 20.1671 14.974 19.7642C15.0905 19.3775 15.2841 19.0184 15.543 18.7085C15.7956 18.4076 16.0999 18.154 16.4414 17.9598C16.7956 17.7754 17.182 17.661 17.5794 17.6229L19.9528 17.4058L20.0127 17.1886C20.1025 16.8966 20.2074 16.5522 20.3346 16.1779C20.4619 15.8035 20.5892 15.4292 20.7165 15.1447L20.7764 15.0024L19.2415 13.6997C18.9445 13.4694 18.691 13.188 18.4928 12.8686L18.4479 12.7938C18.2765 12.4626 18.1698 12.1018 18.1335 11.7306V11.6707C18.0909 11.265 18.1316 10.8548 18.2533 10.4653C18.3776 10.0789 18.576 9.72034 18.8372 9.40966L21.3454 6.34748C21.5745 6.06651 21.8538 5.83043 22.1689 5.6512L22.2588 5.5913C22.6102 5.39637 22.9972 5.27415 23.3968 5.23192C23.808 5.17969 24.2257 5.22325 24.6172 5.3592C24.9674 5.47927 25.2942 5.65912 25.583 5.89078L27.5072 7.44058L27.7018 7.29084C28.0088 7.11116 28.3232 6.94644 28.6377 6.78922C28.9521 6.63199 29.2966 6.45979 29.6035 6.32502L29.7832 6.25764L29.5811 4.24364C29.5356 3.85125 29.5713 3.4537 29.6859 3.07567V3.01578C29.8009 2.66867 29.9757 2.34434 30.2025 2.05745L30.3148 1.99755C30.5724 1.69282 30.8848 1.4389 31.2357 1.24885C31.5736 1.07043 31.9417 0.956192 32.3213 0.911937C33.3245 0.911937 35.2712 0.65738 36.3193 0.522614C36.7211 0.473777 37.1286 0.506887 37.5173 0.619945C37.9033 0.734254 38.2624 0.925235 38.5729 1.18147C38.8741 1.43098 39.1277 1.7328 39.3216 2.07242C39.5129 2.43606 39.6347 2.83213 39.681 3.24039L39.8906 5.62125L40.1077 5.68114C40.3997 5.7635 40.7441 5.86832 41.126 5.9956L42.1517 6.37743L42.3014 6.44482L43.5967 4.88004C43.8495 4.57343 44.1598 4.31911 44.5101 4.13134C44.8684 3.93113 45.2628 3.8039 45.6706 3.75699C46.0758 3.7068 46.487 3.74512 46.876 3.86929H46.8385ZM34.9717 12.5617C35.5472 12.5131 36.1257 12.5131 36.7012 12.5617C37.3003 12.6204 37.8922 12.7382 38.4681 12.9136C39.0168 13.0858 39.5481 13.3089 40.0553 13.5799L40.1227 13.6173C40.5972 13.88 41.0481 14.1831 41.4704 14.5233C42.3493 15.2682 43.0829 16.1694 43.6341 17.1811C43.9246 17.7001 44.1557 18.2501 44.3229 18.8208C44.4973 19.3959 44.6077 19.9884 44.6523 20.5877C44.7046 21.1605 44.7046 21.7369 44.6523 22.3097C44.6013 22.9094 44.4858 23.5017 44.3079 24.0767V24.1515C44.1382 24.6688 43.9227 25.1699 43.6641 25.6489C43.3935 26.149 43.0803 26.625 42.7282 27.0714L42.6533 27.1538C41.9241 28.0089 41.0434 28.7222 40.0553 29.2576C39.5317 29.5437 38.9797 29.7746 38.4082 29.9464C37.8338 30.1129 37.2445 30.2233 36.6488 30.2759C36.0633 30.3245 35.4748 30.3245 34.8893 30.2759C34.29 30.2181 33.6981 30.1002 33.1224 29.924C32.5766 29.7504 32.0479 29.5273 31.5426 29.2576C31.0429 28.9836 30.5671 28.668 30.1201 28.3143C29.684 27.9481 29.283 27.542 28.9222 27.1014C28.5563 26.6517 28.2306 26.1707 27.9489 25.6639C27.6647 25.1402 27.4363 24.5882 27.2676 24.0168C27.0932 23.4417 26.9827 22.8491 26.9382 22.2498C26.8859 21.677 26.8859 21.1006 26.9382 20.5278C26.9892 19.9282 27.1047 19.3358 27.2826 18.7609C27.4534 18.2117 27.6765 17.6802 27.9489 17.1737L27.9863 17.1063C28.2453 16.6273 28.5486 16.1736 28.8923 15.7511L28.9521 15.6763C29.3035 15.2575 29.6946 14.8739 30.1201 14.5308C30.57 14.1672 31.051 13.844 31.5576 13.5649C32.0785 13.2784 32.628 13.0475 33.1973 12.8761C33.7744 12.7103 34.3661 12.6 34.9642 12.5467L34.9717 12.5617ZM36.4691 14.8602C36.0258 14.819 35.5797 14.819 35.1364 14.8602C34.6977 14.8967 34.2638 14.9769 33.8411 15.0998C33.4281 15.2223 33.0291 15.3879 32.6507 15.5939C32.2632 15.8117 31.895 16.0622 31.5501 16.3426C31.2427 16.5924 30.9572 16.8679 30.6966 17.1662C30.4431 17.4829 30.2176 17.8211 30.0228 18.1769V18.2368C29.8222 18.6178 29.6568 19.0162 29.5286 19.4272C29.373 19.8589 29.2626 20.3055 29.1992 20.7599C29.1617 21.2034 29.1617 21.6492 29.1992 22.0926C29.2352 22.5344 29.318 22.9711 29.4463 23.3953C29.5677 23.8171 29.7359 24.2239 29.9479 24.6082C30.1631 24.995 30.4137 25.3609 30.6966 25.7013C30.9602 26.0297 31.2562 26.3307 31.5801 26.5998C31.9107 26.8626 32.264 27.0956 32.6357 27.2961C33.0199 27.4973 33.4207 27.6651 33.8337 27.7977C34.2547 27.93 34.6891 28.0154 35.1289 28.0522C35.5797 28.0934 36.0333 28.0934 36.4841 28.0522C36.9251 28.0151 37.3614 27.9348 37.7868 27.8127C38.1848 27.6883 38.5687 27.5227 38.9323 27.3185C39.3214 27.1034 39.6899 26.8528 40.0329 26.5698C40.3409 26.3153 40.6265 26.0348 40.8864 25.7313C41.1687 25.3958 41.4193 25.0349 41.6351 24.6531C41.826 24.2867 41.9887 23.9063 42.1217 23.5151V23.4702C42.2518 23.0457 42.3396 22.6093 42.3838 22.1675C42.4213 21.724 42.4213 21.2782 42.3838 20.8348C42.3478 20.393 42.265 19.9563 42.1367 19.5321C42.0148 19.1188 41.8491 18.7198 41.6426 18.3416C41.4292 17.9538 41.1784 17.5876 40.8939 17.2485C40.6303 16.9202 40.3343 16.6192 40.0104 16.3501C39.6975 16.1008 39.3645 15.8779 39.0146 15.6837H38.9548C38.5707 15.4822 38.1699 15.3143 37.7568 15.1821C37.3381 15.0507 36.9063 14.9653 36.4691 14.9276V14.8602ZM12.1663 64.7759C12.6938 64.7744 13.2099 64.9295 13.6492 65.2214C14.0885 65.5134 14.4313 65.9291 14.6341 66.416C14.837 66.9029 14.8909 67.4391 14.7889 67.9566C14.6869 68.4741 14.4336 68.9498 14.0612 69.3233C13.6887 69.6968 13.2138 69.9514 12.6966 70.0548C12.1793 70.1583 11.643 70.1059 11.1556 69.9044C10.6681 69.7029 10.2514 69.3613 9.95818 68.9228C9.66498 68.4843 9.50847 67.9687 9.50846 67.4412C9.50846 66.7356 9.78825 66.0588 10.2865 65.5592C10.7847 65.0595 11.4607 64.7779 12.1663 64.7759Z" fill="#00B0F3"/>
</svg>
