<svg width="25" height="24" viewBox="0 0 25 24" fill="none" xmlns="http://www.w3.org/2000/svg">
<path d="M22.6473 10.1025L15.1473 2.60249C15.0686 2.52393 14.9685 2.47043 14.8594 2.44877C14.7504 2.42711 14.6373 2.43825 14.5346 2.48078C14.4319 2.52331 14.3441 2.59533 14.2823 2.68774C14.2204 2.78016 14.1874 2.88881 14.1873 2.99999V6.95624C9.0798 7.29281 2.90074 12.1125 2.19387 18.2681C2.17091 18.4641 2.21039 18.6624 2.30669 18.8346C2.40299 19.0069 2.5512 19.1444 2.73019 19.2275C2.90919 19.3106 3.10985 19.3351 3.30359 19.2975C3.49732 19.2599 3.67426 19.1621 3.80918 19.0181C4.8648 17.8922 8.65605 14.3062 14.1873 14.0747V18C14.1874 18.1112 14.2204 18.2198 14.2823 18.3122C14.3441 18.4047 14.4319 18.4767 14.5346 18.5192C14.6373 18.5617 14.7504 18.5729 14.8594 18.5512C14.9685 18.5296 15.0686 18.4761 15.1473 18.3975L22.6473 10.8975C22.7526 10.792 22.8118 10.6491 22.8118 10.5C22.8118 10.3509 22.7526 10.208 22.6473 10.1025ZM15.3123 16.6425V13.5C15.3123 13.3508 15.253 13.2077 15.1476 13.1022C15.0421 12.9968 14.899 12.9375 14.7498 12.9375C12.1501 12.9375 9.61605 13.6172 7.2198 14.9578C5.82314 15.7424 4.53663 16.7086 3.39387 17.8312C3.83449 15.3412 5.28387 12.9562 7.51887 11.0559C9.73137 9.18187 12.4332 8.06249 14.7498 8.06249C14.899 8.06249 15.0421 8.00323 15.1476 7.89774C15.253 7.79225 15.3123 7.64918 15.3123 7.49999V4.35843L21.4539 10.5L15.3123 16.6425Z" fill="#4D4D4D"/>
</svg>
