<svg width="88" height="88" viewBox="0 0 88 88" fill="none" xmlns="http://www.w3.org/2000/svg">
<path d="M62.156 0.666626H25.8427C10.0693 0.666626 0.666016 10.07 0.666016 25.8433V62.1133C0.666016 77.93 10.0693 87.3333 25.8427 87.3333H62.1127C77.886 87.3333 87.2894 77.93 87.2894 62.1566V25.8433C87.3327 10.07 77.9294 0.666626 62.156 0.666626ZM25.0627 70.65C25.0627 72.4266 23.5893 73.9 21.8127 73.9C20.036 73.9 18.5627 72.4266 18.5627 70.65V61.68C18.5627 59.9033 20.036 58.43 21.8127 58.43C23.5893 58.43 25.0627 59.9033 25.0627 61.68V70.65ZM47.2494 70.65C47.2494 72.4266 45.776 73.9 43.9994 73.9C42.2227 73.9 40.7494 72.4266 40.7494 70.65V52.6666C40.7494 50.89 42.2227 49.4166 43.9994 49.4166C45.776 49.4166 47.2494 50.89 47.2494 52.6666V70.65ZM69.436 70.65C69.436 72.4266 67.9627 73.9 66.186 73.9C64.4094 73.9 62.936 72.4266 62.936 70.65V43.6966C62.936 41.92 64.4094 40.4466 66.186 40.4466C67.9627 40.4466 69.436 41.92 69.436 43.6966V70.65ZM69.436 30.0033C69.436 31.78 67.9627 33.2533 66.186 33.2533C64.4094 33.2533 62.936 31.78 62.936 30.0033V25.8C51.886 37.1533 38.0627 45.17 22.5927 49.0266C22.3327 49.1133 22.0727 49.1133 21.8127 49.1133C20.3393 49.1133 19.0394 48.1166 18.6493 46.6433C18.216 44.91 19.256 43.1333 21.0327 42.7C35.636 39.06 48.636 31.39 58.9493 20.5566H53.5327C51.756 20.5566 50.2827 19.0833 50.2827 17.3066C50.2827 15.53 51.756 14.0566 53.5327 14.0566H66.2293C66.4027 14.0566 66.5327 14.1433 66.706 14.1433C66.9227 14.1866 67.1394 14.1866 67.356 14.2733C67.5727 14.36 67.746 14.49 67.9627 14.62C68.0927 14.7066 68.2227 14.75 68.3527 14.8366C68.396 14.88 68.396 14.9233 68.4393 14.9233C68.6127 15.0966 68.7427 15.27 68.8727 15.4433C69.0027 15.6166 69.1327 15.7466 69.176 15.92C69.2627 16.0933 69.2627 16.2666 69.306 16.4833C69.3493 16.7 69.436 16.9166 69.436 17.1766C69.436 17.22 69.4793 17.2633 69.4793 17.3066V30.0033H69.436Z" fill="#3B28CC"/>
</svg>
