<svg width="93" height="92" viewBox="0 0 93 92" fill="none" xmlns="http://www.w3.org/2000/svg">
<path d="M65.897 19.0133C65.897 19.0516 65.897 19.0516 65.897 19.09C64.9387 19.0516 63.9804 19.0133 62.9454 19.0133H33.4287L37.5304 14.95C41.287 11.155 45.427 7.66663 50.2187 7.66663C55.0487 7.66663 59.1887 11.155 62.9454 14.95L65.092 17.0966C65.6287 17.595 65.897 18.285 65.897 19.0133Z" fill="#4D4D4D"/>
<path d="M79.8883 50.485C81.3833 50.485 82.5716 49.2583 82.5716 47.725V44.3516C82.5716 29.2866 77.9716 24.725 62.945 24.725H38.795H29.0583C14.0316 24.725 9.43164 29.325 9.43164 44.3516V46C9.43164 47.5333 10.62 48.7216 12.115 48.7216C15.335 48.7216 17.9033 51.3283 17.9033 54.51C17.9033 57.6916 15.335 60.3366 12.115 60.3366C10.62 60.3366 9.43164 61.525 9.43164 63.0583V64.7066C9.43164 79.7716 14.0316 84.3333 29.0583 84.3333H38.7566H62.9066C77.9333 84.3333 82.5333 79.7333 82.5333 64.7066C82.5333 63.2116 81.345 61.985 79.85 61.985C76.63 61.985 74.0616 59.4166 74.0616 56.235C74.1 53.0533 76.6683 50.485 79.8883 50.485ZM41.4783 72.2966C41.4783 73.7916 40.2516 75.0183 38.7566 75.0183C37.2616 75.0183 36.035 73.7916 36.035 72.2966V62.0233C36.035 60.5283 37.2616 59.3016 38.7566 59.3016C40.2516 59.3016 41.4783 60.5283 41.4783 62.0233V72.2966ZM41.4783 47.035C41.4783 48.53 40.2516 49.7566 38.7566 49.7566C37.2616 49.7566 36.035 48.53 36.035 47.035V36.7616C36.035 35.2666 37.2616 34.04 38.7566 34.04C40.2516 34.04 41.4783 35.2666 41.4783 36.7616V47.035Z" fill="#4D4D4D"/>
</svg>
