<svg width="104" height="104" viewBox="0 0 104 104" fill="none" xmlns="http://www.w3.org/2000/svg">
<path d="M51.736 9.5765L41.2926 33.8865H30.8493C29.116 33.8865 27.426 34.0165 25.7793 34.3632L30.1126 23.9632L30.286 23.5732L30.546 22.8798C30.676 22.5765 30.7626 22.3165 30.8926 22.0998C35.9193 10.4432 41.5526 6.80317 51.736 9.5765Z" fill="#00B0F3"/>
<path d="M81.159 35.0567L81.0723 35.0134C78.4723 34.2767 75.829 33.8867 73.1423 33.8867H46.0156L55.7656 11.2234L55.8956 10.92C56.5023 11.1367 57.1523 11.44 57.8023 11.6567L67.379 15.6867C72.709 17.8967 76.4356 20.1934 78.7323 22.9667C79.1223 23.4867 79.469 23.9634 79.8156 24.5267C80.2056 25.1334 80.509 25.74 80.6823 26.39C80.8556 26.78 80.9856 27.1267 81.0723 27.5167C81.7223 29.7267 81.7656 32.24 81.159 35.0567Z" fill="#00B0F3"/>
<path d="M54.252 76.5265H55.3353C56.6353 76.5265 57.7186 75.3565 57.7186 73.9265C57.7186 72.1065 57.1986 71.8465 56.0719 71.4132L54.252 70.7632V76.5265Z" fill="#00B0F3"/>
<path d="M79.257 41.2531C77.307 40.6898 75.2704 40.3865 73.147 40.3865H30.8537C27.907 40.3865 25.1337 40.9498 22.5337 42.0765C14.9937 45.3265 9.70703 52.8231 9.70703 61.5331V69.9831C9.70703 71.0231 9.7937 72.0198 9.9237 73.0598C10.877 86.8398 18.2437 94.2065 32.0237 95.1165C33.0204 95.2465 34.017 95.3331 35.1004 95.3331H68.9004C84.9337 95.3331 93.3837 87.7065 94.207 72.5398C94.2504 71.7165 94.2937 70.8498 94.2937 69.9831V61.5331C94.2937 51.9565 87.9237 43.8965 79.257 41.2531ZM57.547 67.1665C59.5404 67.8598 62.227 69.3331 62.227 73.9265C62.227 77.8698 59.1504 81.0331 55.337 81.0331H54.2537V81.9865C54.2537 83.2431 53.257 84.2398 52.0004 84.2398C50.7437 84.2398 49.747 83.2431 49.747 81.9865V81.0331H49.357C45.197 81.0331 41.7737 77.5231 41.7737 73.1898C41.7737 71.9331 42.7704 70.9365 44.027 70.9365C45.2837 70.9365 46.2804 71.9331 46.2804 73.1898C46.2804 75.0098 47.667 76.5265 49.357 76.5265H49.747V69.2031L46.4537 68.0331C44.4604 67.3398 41.7737 65.8665 41.7737 61.2731C41.7737 57.3298 44.8504 54.1665 48.6637 54.1665H49.747V53.2131C49.747 51.9565 50.7437 50.9598 52.0004 50.9598C53.257 50.9598 54.2537 51.9565 54.2537 53.2131V54.1665H54.6437C58.8037 54.1665 62.227 57.6765 62.227 62.0098C62.227 63.2665 61.2304 64.2631 59.9737 64.2631C58.717 64.2631 57.7204 63.2665 57.7204 62.0098C57.7204 60.1898 56.3337 58.6731 54.6437 58.6731H54.2537V65.9965L57.547 67.1665Z" fill="#00B0F3"/>
<path d="M46.2793 61.2735C46.2793 63.0935 46.7993 63.3535 47.926 63.7868L49.746 64.4368V58.6735H48.6626C47.3193 58.6735 46.2793 59.8435 46.2793 61.2735Z" fill="#00B0F3"/>
</svg>
